<svg xmlns="http://www.w3.org/2000/svg" viewBox="0 0 384.41 32.781" fill="none">
  <path d="m320.985 19.875 1.5-1.156a4.293 4.293 0 0 0 .557-.505q.248-.265.488-.596a7.871 7.871 0 0 0 .159-.227 14.863 14.863 0 0 0 .57-.922 19.401 19.401 0 0 0 .555-1.047 35.607 35.607 0 0 0 .677-1.46 42.911 42.911 0 0 0 .401-.946q.531-1.297 1.062-2.672.375-1 .766-1.985.39-.984.797-1.875a33.702 33.702 0 0 1 .402-.851 26.404 26.404 0 0 1 .395-.774 12.161 12.161 0 0 1 .326-.578q.222-.367.439-.656a13.697 13.697 0 0 1 .78.527 9.996 9.996 0 0 1 .673.536 6.635 6.635 0 0 1 1.063 1.171 5.15 5.15 0 0 1 .574 1.067 6.098 6.098 0 0 1 .145.402 8.061 8.061 0 0 1 .205.782q.115.538.185 1.171a39.756 39.756 0 0 0-1.281 2.688q-.594 1.375-1.188 2.781-.75 1.813-1.546 3.609-.797 1.797-1.766 3.422-.969 1.625-2.172 2.985-1.203 1.359-2.766 2.297a5.091 5.091 0 0 0-.31-.058q-.151-.022-.283-.031a2.4 2.4 0 0 0-.157-.005 2.105 2.105 0 0 0-.242.013q-.124.014-.23.045a1.091 1.091 0 0 0-.106.036q-.234.093-.422.25-1.281-.594-2.062-1.766a26.137 26.137 0 0 1-.952-1.548 32.269 32.269 0 0 1-.579-1.061q-.094-.219-.203-.422a18.554 18.554 0 0 0-.173-.314 21.164 21.164 0 0 0-.062-.108l-.531-.969-.313-.594-.437.407-.656.593-.375.375a62.715 62.715 0 0 1-1.969 1.766 18.846 18.846 0 0 1-2.094 1.562q-1.094.704-2.328 1.141a8.293 8.293 0 0 1-2.292.455 9.45 9.45 0 0 1-.349.014q-.25-.125-.453-.219a14.051 14.051 0 0 1-.343-.164 12.743 12.743 0 0 1-.047-.023q-.551-.264-.954-.509a6.466 6.466 0 0 1-.234-.148 4.123 4.123 0 0 1-.308-.229q-.356-.288-.786-.739a20.236 20.236 0 0 0-.234-.499 18.002 18.002 0 0 0-.078-.158q-.156-.312-.313-.562-.322-.645-.575-1.174a51.265 51.265 0 0 1-.081-.17 9.451 9.451 0 0 1-.269-.63q-.135-.348-.262-.745.094-.531.328-1.781a110.821 110.821 0 0 1 .254-1.309 144.299 144.299 0 0 1 .293-1.426q.312-1.484.672-3.015a36.78 36.78 0 0 1 .272-1.087q.142-.534.287-1.002a19.276 19.276 0 0 1 .175-.536 73.609 73.609 0 0 1 .364-1 89.63 89.63 0 0 1 .402-1.063 16.486 16.486 0 0 1 .624-1.422 14.111 14.111 0 0 1 .313-.593 9.834 9.834 0 0 1 .536-.856 7.529 7.529 0 0 1 .574-.722 3.003 3.003 0 0 1 .458-.418q.393-.286.823-.364.187.25.406.391a2.339 2.339 0 0 0 .179.105q.119.062.227.098a13.188 13.188 0 0 0 .459.611q.237.296.467.543a7.645 7.645 0 0 0 .106.112 8.17 8.17 0 0 0 .622.575 10.529 10.529 0 0 0 .565.44q-.181.908-.524 2.005a27.538 27.538 0 0 1-.023.073 117.438 117.438 0 0 1-.75 2.297 267.83 267.83 0 0 1-.671 1.964 242.319 242.319 0 0 1-.094.271q-.287.825-.483 1.476a21.472 21.472 0 0 0-.111.383q-.188.625-.375 1.438a26.116 26.116 0 0 0-.119.555q-.102.495-.209 1.101a46.043 46.043 0 0 0-.168 1.015 59.443 59.443 0 0 0-.16 1.11q.437-.125.984-.5.547-.375 1.016-.781a16.346 16.346 0 0 0 1.093-1 26.522 26.522 0 0 0 .588-.605q.262-.281.486-.539a14.793 14.793 0 0 0 .145-.169q.5-.594.922-1.234a31.001 31.001 0 0 0 .43-.672 38.716 38.716 0 0 0 .445-.735 592.134 592.134 0 0 0 .364-.616q.162-.274.34-.577a1118.293 1118.293 0 0 0 .374-.635 95.462 95.462 0 0 0 .574-.937 113.597 113.597 0 0 0 .598-1 43.321 43.321 0 0 1 1.078-1.733 39.506 39.506 0 0 1 .156-.236q.625-.937 1.219-1.734a11.675 11.675 0 0 1 .415-.527q.359-.427.679-.708.344.344.797.719a2.791 2.791 0 0 0 .812.474 2.634 2.634 0 0 0 .172.057 10.037 10.037 0 0 0 .215.324 7.464 7.464 0 0 0 .207.286 70.166 70.166 0 0 1 .344.453 63.675 63.675 0 0 1 .047.062 273.058 273.058 0 0 1 .238.328 201.48 201.48 0 0 1 .215.297 3.539 3.539 0 0 1 .298.496 4.046 4.046 0 0 1 .061.129q-.031.25-.109.657a666.766 666.766 0 0 1-.082.425 870.597 870.597 0 0 1-.09.465q-.094.485-.203.985a55.868 55.868 0 0 0-.18.851 50.432 50.432 0 0 0-.023.117q-.313 1.407-.469 2.125-.129.593-.194.973a9.138 9.138 0 0 0-.025.152q-.043.28-.064.5a4.883 4.883 0 0 0-.014.188 7.53 7.53 0 0 0-.007.154q-.006.173-.008.405a27.304 27.304 0 0 0-.001.222q0 .375.063.75.062.344.141.703.078.36.296.672ZM11.048 4.25l.094.438q.042.146.118.229a.337.337 0 0 0 .085.067.919.919 0 0 0 .075.038q.092.041.159.041.327.075.583.16a4.17 4.17 0 0 1 .12.043 2.435 2.435 0 0 0 .509.125 2.81 2.81 0 0 0 .132.015q.125.188.234.375a2.91 2.91 0 0 0 .185.279 2.582 2.582 0 0 0 .05.065 14.637 14.637 0 0 1 .634 1 11.476 11.476 0 0 1 .397.75q.406.844 0 1.844l.031.344a1.072 1.072 0 0 1 .086.14q.039.077.057.151a.497.497 0 0 1 .013.115 1.597 1.597 0 0 1-.005.125q-.013.164-.057.406a6.783 6.783 0 0 0-.027.262 8.692 8.692 0 0 0-.02.285 1.632 1.632 0 0 0-.002.086q0 .154.028.321a2.449 2.449 0 0 0 .052.233l.219.251a2.524 2.524 0 0 0 .462.179 1.915 1.915 0 0 0 .507.07 2.387 2.387 0 0 0 .715-.104 2.126 2.126 0 0 0 .41-.177 19.32 19.32 0 0 0 .7-.413 16.663 16.663 0 0 0 .237-.149q.344-.25.641-.406.297-.157.578-.219a53.615 53.615 0 0 1 .624-.586q.299-.275.57-.516a37.293 37.293 0 0 1 .009-.008 60.03 60.03 0 0 1 1.067-.922 65.754 65.754 0 0 1 .074-.062q1.125-.906 2.187-1.953a7.147 7.147 0 0 0 1.302-1.771 8.784 8.784 0 0 0 .386-.838q.343-.219.781-.219.437 0 .875.172.437.172.875.39a1.239 1.239 0 0 0 .074.046q.037.021.071.037A.659.659 0 0 0 27.97 5a.746.746 0 0 1 .071.033q.036.019.075.044a1.383 1.383 0 0 1 .026.017.816.816 0 0 0 .165.489 1.143 1.143 0 0 0 .116.136 4.365 4.365 0 0 0 .064.05q.087.067.136.096a.33.33 0 0 0 .019.01l.125.063a9.909 9.909 0 0 1 .176.112q.086.057.161.108a4.984 4.984 0 0 1 .085.061q.171.125.265.344a2.799 2.799 0 0 0 .388.767 2.402 2.402 0 0 0 .55.545q-.063.344.031.672a6.622 6.622 0 0 0 .219.641 1.602 1.602 0 0 1 .054.12 1.175 1.175 0 0 1 .039.114q.032.109.094.266l-.687-.063.093.688q.068.38-.002.825a3.637 3.637 0 0 1-.076.362q-.112.431-.245.74a2.671 2.671 0 0 1-.145.291 41.273 41.273 0 0 1 .027.445q.035.629.035 1.04a8.418 8.418 0 0 1-.022.621 6.766 6.766 0 0 1-.04.394 4.869 4.869 0 0 1-.178.811 4.475 4.475 0 0 1-.025.08 7.653 7.653 0 0 1-.195.517 9.597 9.597 0 0 1-.165.373q.089 1.683-.223 3.162a10.105 10.105 0 0 1-.324 1.182 42.212 42.212 0 0 1-1.045 2.757 36.493 36.493 0 0 1-.408.931 8.201 8.201 0 0 1-.117.261 6.773 6.773 0 0 1-.07.145q-.094.188-.157.375a4.815 4.815 0 0 0-.366.115 3.864 3.864 0 0 0-.259.104q-.281.125-.531.281a4.517 4.517 0 0 1-.505.279 3.942 3.942 0 0 1-.182.08q-.344.141-.719.141-1.5-1.094-1.547-3.781-.047-2.688 1.141-6.844.213-.153.189-.454a.83.83 0 0 0-.002-.015v-.343l-.312-.032a1.345 1.345 0 0 0-.149.008 1.005 1.005 0 0 0-.133.023.17.17 0 0 0-.085.056q-.063.07-.102.226a55.183 55.183 0 0 1-1.317.916 66.791 66.791 0 0 1-.855.568q-1.172.766-2.422 1.406-1.25.641-2.547 1.063a8.663 8.663 0 0 1-1.59.362 7.351 7.351 0 0 1-.925.06q-3.125 0-4.719-3.188l-.281-.562-.313.5a3.635 3.635 0 0 0-.051.089q-.075.133-.197.367a37.875 37.875 0 0 0-.08.153q-.227.439-.454 1.009a15.632 15.632 0 0 0-.015.038 11.938 11.938 0 0 0-.406 1.219 3.884 3.884 0 0 0-.086.385q-.066.39-.023.709-.375.343-.735.781-.359.437-.515 1-.042.104-.042.201a.439.439 0 0 0 .01.096 1.756 1.756 0 0 0 .049.172 2.219 2.219 0 0 0 .045.125q-.031.218-.125.312a1.831 1.831 0 0 1-.115.105 2.342 2.342 0 0 1-.104.082q-.156.157-.312.329a2.151 2.151 0 0 0-.233.31 2.451 2.451 0 0 0-.048.08 2.375 2.375 0 0 0-.094.391 10.177 10.177 0 0 1-.027.169q-.014.077-.027.145a5.867 5.867 0 0 1-.009.045 1.983 1.983 0 0 1-.005.154q-.012.149-.048.24a.321.321 0 0 1-.04.075 30.703 30.703 0 0 1-.152.313q-.205.419-.372.723a10.627 10.627 0 0 1-.023.042 4.556 4.556 0 0 1-.145.244q-.079.123-.156.222a1.86 1.86 0 0 1-.152.175 1.453 1.453 0 0 1-.188.159q-.13.092-.265.138a1.451 1.451 0 0 1-.254.058q-.12.017-.255.019a2.442 2.442 0 0 1-.038.001 3.06 3.06 0 0 1-.178-.006q-.299-.018-.791-.088a3.729 3.729 0 0 1-.413-.534q-.256-.397-.478-.919a9.755 9.755 0 0 1-.561-1.806 10.838 10.838 0 0 1-.032-.163A10.185 10.185 0 0 1 0 22.009a10.022 10.022 0 0 1 .001-.15 5.65 5.65 0 0 1 .098-.988A4.346 4.346 0 0 1 .36 20q0-.027.226-.578a83.713 83.713 0 0 1 .071-.172 151.42 151.42 0 0 1 .16-.384q.238-.571.56-1.335a446.225 446.225 0 0 1 .046-.109 192.388 192.388 0 0 1 .5-1.172 262.81 262.81 0 0 1 .562-1.297q.594-1.359 1.188-2.672a68.028 68.028 0 0 1 .582-1.254 52.315 52.315 0 0 1 .559-1.136q.546-1.078.953-1.672.281-.438.515-.844a22.473 22.473 0 0 1 .231-.391 18.199 18.199 0 0 1 .222-.359 1055.959 1055.959 0 0 1 .333-.543 845.021 845.021 0 0 1 .308-.504 5.721 5.721 0 0 1 .557-.763 5.204 5.204 0 0 1 .099-.112 4.554 4.554 0 0 1 .797-.687 3.873 3.873 0 0 1 .485-.278q.265-.129.578-.238a5.624 5.624 0 0 1 .35.16 4.109 4.109 0 0 1 .306.168q.281.172.5.422Zm198.312 0 .094.438q.042.146.119.229a.337.337 0 0 0 .084.067.919.919 0 0 0 .076.038q.091.041.159.041.327.075.583.16a4.17 4.17 0 0 1 .12.043 2.435 2.435 0 0 0 .508.125 2.81 2.81 0 0 0 .132.015q.125.188.235.375a2.91 2.91 0 0 0 .184.279 2.582 2.582 0 0 0 .05.065 14.637 14.637 0 0 1 .634 1 11.476 11.476 0 0 1 .397.75q.407.844 0 1.844l.032.344a1.072 1.072 0 0 1 .085.14q.04.077.057.151a.497.497 0 0 1 .014.115 1.597 1.597 0 0 1-.006.125q-.013.164-.057.406a6.783 6.783 0 0 0-.027.262 8.692 8.692 0 0 0-.019.285 1.632 1.632 0 0 0-.003.086q0 .154.029.321a2.449 2.449 0 0 0 .052.233l.218.251a2.524 2.524 0 0 0 .462.179 1.915 1.915 0 0 0 .507.07 2.387 2.387 0 0 0 .716-.104 2.126 2.126 0 0 0 .409-.177 19.32 19.32 0 0 0 .701-.413 16.663 16.663 0 0 0 .237-.149q.343-.25.64-.406.297-.157.578-.219a53.615 53.615 0 0 1 .625-.586q.298-.275.57-.516a37.293 37.293 0 0 1 .009-.008 60.03 60.03 0 0 1 1.066-.922 65.754 65.754 0 0 1 .074-.062q1.125-.906 2.188-1.953a7.147 7.147 0 0 0 1.301-1.771 8.784 8.784 0 0 0 .386-.838q.344-.219.781-.219.438 0 .875.172.438.172.875.39a1.239 1.239 0 0 0 .074.046q.037.021.072.037a.659.659 0 0 0 .026.011.746.746 0 0 1 .072.033q.036.019.074.044a1.383 1.383 0 0 1 .026.017.816.816 0 0 0 .165.489 1.143 1.143 0 0 0 .116.136 4.365 4.365 0 0 0 .064.05q.088.067.136.096a.33.33 0 0 0 .019.01l.125.063a9.909 9.909 0 0 1 .177.112q.086.057.16.108a4.984 4.984 0 0 1 .085.061q.172.125.266.344a2.799 2.799 0 0 0 .388.767 2.402 2.402 0 0 0 .549.545q-.062.344.031.672a6.622 6.622 0 0 0 .219.641 1.602 1.602 0 0 1 .055.12 1.175 1.175 0 0 1 .039.114q.031.109.094.266l-.688-.063.094.688q.067.38-.002.825a3.637 3.637 0 0 1-.076.362q-.113.431-.246.74a2.671 2.671 0 0 1-.145.291 41.273 41.273 0 0 1 .028.445q.035.629.035 1.04a8.418 8.418 0 0 1-.022.621 6.766 6.766 0 0 1-.041.394 4.869 4.869 0 0 1-.177.811 4.475 4.475 0 0 1-.026.08 7.653 7.653 0 0 1-.194.517 9.597 9.597 0 0 1-.165.373q.088 1.683-.223 3.162a10.105 10.105 0 0 1-.324 1.182 42.212 42.212 0 0 1-1.046 2.757 36.493 36.493 0 0 1-.407.931 8.201 8.201 0 0 1-.117.261 6.773 6.773 0 0 1-.071.145q-.094.188-.156.375a4.815 4.815 0 0 0-.367.115 3.864 3.864 0 0 0-.258.104q-.281.125-.531.281a4.517 4.517 0 0 1-.505.279 3.942 3.942 0 0 1-.183.08q-.344.141-.719.141-1.5-1.094-1.546-3.781-.047-2.688 1.14-6.844.214-.153.189-.454a.83.83 0 0 0-.001-.015v-.343l-.313-.032a1.345 1.345 0 0 0-.148.008 1.005 1.005 0 0 0-.133.023.17.17 0 0 0-.086.056q-.063.07-.102.226a55.183 55.183 0 0 1-1.317.916 66.791 66.791 0 0 1-.854.568q-1.172.766-2.422 1.406-1.25.641-2.547 1.063a8.663 8.663 0 0 1-1.591.362 7.351 7.351 0 0 1-.925.06q-3.125 0-4.719-3.188l-.281-.562-.312.5a3.635 3.635 0 0 0-.052.089q-.074.133-.197.367a37.875 37.875 0 0 0-.079.153q-.227.439-.454 1.009a15.632 15.632 0 0 0-.015.038 11.938 11.938 0 0 0-.406 1.219 3.884 3.884 0 0 0-.087.385q-.065.39-.023.709-.375.343-.734.781-.36.437-.516 1-.041.104-.041.201a.439.439 0 0 0 .01.096 1.756 1.756 0 0 0 .048.172 2.219 2.219 0 0 0 .046.125q-.032.218-.125.312a1.831 1.831 0 0 1-.116.105 2.342 2.342 0 0 1-.103.082q-.156.157-.313.329a2.151 2.151 0 0 0-.233.31 2.451 2.451 0 0 0-.048.08 2.375 2.375 0 0 0-.094.391 10.177 10.177 0 0 1-.027.169q-.013.077-.026.145a5.867 5.867 0 0 1-.009.045 1.983 1.983 0 0 1-.006.154q-.011.149-.047.24a.321.321 0 0 1-.041.075 30.703 30.703 0 0 1-.151.313q-.205.419-.372.723a10.627 10.627 0 0 1-.024.042 4.556 4.556 0 0 1-.145.244q-.078.123-.156.222a1.86 1.86 0 0 1-.152.175 1.453 1.453 0 0 1-.187.159q-.13.092-.266.138a1.451 1.451 0 0 1-.254.058q-.119.017-.254.019a2.442 2.442 0 0 1-.039.001 3.06 3.06 0 0 1-.177-.006q-.299-.018-.792-.088a3.729 3.729 0 0 1-.413-.534q-.256-.397-.477-.919a9.755 9.755 0 0 1-.561-1.806 10.838 10.838 0 0 1-.033-.163 10.185 10.185 0 0 1-.188-1.944 10.022 10.022 0 0 1 .001-.15 5.65 5.65 0 0 1 .097-.988 4.346 4.346 0 0 1 .262-.871q0-.027.226-.578a83.713 83.713 0 0 1 .071-.172 151.42 151.42 0 0 1 .159-.384q.238-.571.56-1.335a446.225 446.225 0 0 1 .046-.109 192.388 192.388 0 0 1 .5-1.172 262.81 262.81 0 0 1 .563-1.297q.594-1.359 1.187-2.672a68.028 68.028 0 0 1 .583-1.254 52.315 52.315 0 0 1 .558-1.136q.547-1.078.953-1.672.281-.438.516-.844a22.473 22.473 0 0 1 .23-.391 18.199 18.199 0 0 1 .223-.359 1055.959 1055.959 0 0 1 .332-.543 845.021 845.021 0 0 1 .309-.504 5.721 5.721 0 0 1 .556-.763 5.204 5.204 0 0 1 .1-.112 4.554 4.554 0 0 1 .797-.687 3.873 3.873 0 0 1 .484-.278q.266-.129.578-.238a5.624 5.624 0 0 1 .351.16 4.109 4.109 0 0 1 .305.168q.282.172.5.422Zm-83.937 22.219h-.094q-.469.062-.89.156-.422.094-.86.219-.187.062-.375.094a3.236 3.236 0 0 0-.195.039 4.237 4.237 0 0 0-.211.054q-.563-.125-1.078-.187-.516-.063-.922-.063l-.469-.125a17.439 17.439 0 0 1-.176-.059q-.169-.059-.288-.105a3.908 3.908 0 0 1-.098-.039q-.188-.078-.36-.125a2.463 2.463 0 0 0-.162-.038q-.084-.017-.179-.031a4.463 4.463 0 0 0-.065-.009 36.788 36.788 0 0 1-.13-.018q-.214-.029-.542-.076a2.988 2.988 0 0 1-.571.174 2.424 2.424 0 0 1-.46.045 2.408 2.408 0 0 1-.476-.049 2.943 2.943 0 0 1-.243-.06 1.677 1.677 0 0 1-.375-.164q-.158-.093-.316-.224a2.916 2.916 0 0 1-.059-.05q-.375-.328-.719-.906a4.505 4.505 0 0 1-.263-.524q-.114-.264-.214-.573a8.961 8.961 0 0 1-.116-.387q.075-.579.171-1.036a8.909 8.909 0 0 1 .047-.214 9.838 9.838 0 0 1 .079-.311q.083-.308.166-.519a2.85 2.85 0 0 1 .005-.014l.25-.281a3.16 3.16 0 0 1 .724-.183 4.154 4.154 0 0 1 .558-.036 4.222 4.222 0 0 1 1.343.219 33.004 33.004 0 0 1 1.313.468 24.101 24.101 0 0 1 .131.059q.172.078.266.124a2.987 2.987 0 0 1 .009.005l.188.094a.254.254 0 0 0 .053.018q.05.013.119.013h.39a2.806 2.806 0 0 0 .217-.008 2.418 2.418 0 0 0 .08-.008 3.249 3.249 0 0 0 .182-.026 3.881 3.881 0 0 0 .115-.021l.375.032q.219.125.531.125a1.686 1.686 0 0 0 .334-.035 1.989 1.989 0 0 0 .119-.028 31.86 31.86 0 0 1 .454-.117 34.76 34.76 0 0 1 .031-.008 3.275 3.275 0 0 1 .178-.062q.089-.027.168-.045a1.604 1.604 0 0 1 .091-.018 1.777 1.777 0 0 0 .222-.051 1.482 1.482 0 0 0 .122-.043l.312-.281a2.297 2.297 0 0 0 .207-.094q.094-.049.17-.102a1.069 1.069 0 0 0 .108-.085q.172-.156.297-.36.125-.203.234-.421.109-.219.297-.469.156-.188.297-.375a3.219 3.219 0 0 1 .277-.324 2.959 2.959 0 0 1 .02-.02v-.312q.5-1.157.875-2.344a33.604 33.604 0 0 0 .656-2.375 44.387 44.387 0 0 0 .432-2.031 40.226 40.226 0 0 0 .052-.282 310.226 310.226 0 0 0 .189-1.054q.089-.501.166-.948a208.79 208.79 0 0 0 .005-.029q-.094 0-.188-.016a1.458 1.458 0 0 0-.061-.009q-.027-.003-.051-.005a.634.634 0 0 0-.044-.001 48.837 48.837 0 0 0-.447.002q-.639.006-1.084.029a17.123 17.123 0 0 0-.639.045 13.35 13.35 0 0 0-.455.049 13.941 13.941 0 0 0-.743.114 16.222 16.222 0 0 0-.304.058q-.52.104-1.307.25a181.182 181.182 0 0 1-.084.015l-.531.094q-.594.281-1.14.516-.547.234-1.141.234a2.099 2.099 0 0 1-1.505-.627 2.857 2.857 0 0 1-.12-.123 1.766 1.766 0 0 1-.508-.452 1.623 1.623 0 0 1-.305-.798q-.13-.234-.13-.447a.678.678 0 0 1 .005-.084 4.244 4.244 0 0 1-.088-.368q-.037-.195-.049-.372a2.512 2.512 0 0 1-.003-.057 17.235 17.235 0 0 1-.012-.348 13.959 13.959 0 0 1-.004-.324l.031-.531h.469q.181-.181.26-.274a1.317 1.317 0 0 0 .006-.007.541.541 0 0 0 .108-.215.636.636 0 0 0 .001-.004l.094-.313.312-.031a35.886 35.886 0 0 0 1.344-.219 41.944 41.944 0 0 0 1.406-.281 225.028 225.028 0 0 0 .511-.089q.201-.036.382-.068a117.319 117.319 0 0 0 .342-.062 13.063 13.063 0 0 1 .687-.107 11.125 11.125 0 0 1 .297-.033q.469-.047.969-.063a29.723 29.723 0 0 1 .467-.011q.32-.004.689-.004a6.927 6.927 0 0 1 .239.003 5.097 5.097 0 0 1 .214.012 5.426 5.426 0 0 0 .364.015 6.039 6.039 0 0 0 .058.001q.079-.098.157-.147a.326.326 0 0 1 .093-.041 1.782 1.782 0 0 1 .059-.013q.082-.018.129-.018a5.217 5.217 0 0 1 .102.016q.109.017.182.035a1.098 1.098 0 0 1 .044.011q.104.03.166.06a.486.486 0 0 1 .006.003 18.689 18.689 0 0 1 1.019-.152 14.044 14.044 0 0 1 .934-.082 36.27 36.27 0 0 1 .841-.035q.4-.012.757-.012a22.941 22.941 0 0 1 .011 0h.688a6.828 6.828 0 0 1 .498.017 5.964 5.964 0 0 1 .158.014h2.031a1.627 1.627 0 0 1 .189-.027 1.35 1.35 0 0 1 .108-.004h.781a3.23 3.23 0 0 1 .123.002q.06.002.113.007a1.682 1.682 0 0 1 .061.006l.25.032a10.717 10.717 0 0 1 .069.008q.076.01.178.025a37.778 37.778 0 0 1 .097.013 34.956 34.956 0 0 0 .508.086 25.934 25.934 0 0 0 .461.071q.437.062.875.062l.593-.031.094.375.281.406a1.318 1.318 0 0 0 .249.343 1.053 1.053 0 0 0 .001.001 4.933 4.933 0 0 0 .247.229 5.726 5.726 0 0 0 .097.084q.369.338.723.843a7.117 7.117 0 0 1 .012.016q.331.475.277 1.337a4.383 4.383 0 0 1-.012.147l-.281.375a1.149 1.149 0 0 0-.234.157 3.604 3.604 0 0 0-.114.101 4.897 4.897 0 0 0-.121.117l-.312.282q-.28.021-.5.035a22.385 22.385 0 0 1-.188.011 9.759 9.759 0 0 1-.297.012 13.152 13.152 0 0 1-.328.004 21.132 21.132 0 0 1-1.14-.031 289.752 289.752 0 0 0-.894-.047 325.726 325.726 0 0 0-.31-.016q-.343-.031-.531-.031h-.344a3.78 3.78 0 0 0-.145.003q-.1.004-.214.013a4.492 4.492 0 0 1-.152.009q-.079.003-.17.005a10.459 10.459 0 0 1-.194.001h-.453q-.127 0-.342.026a6.81 6.81 0 0 0-.048.005q-.054.856-.187 1.517a7.282 7.282 0 0 1-.048.218 21.907 21.907 0 0 1-.245.948 26.194 26.194 0 0 1-.177.599 53.844 53.844 0 0 1-1.04 4.4 47.081 47.081 0 0 1-.413 1.381 40.24 40.24 0 0 1-1.031 2.891 31.676 31.676 0 0 1-.891 2.015q-1 1.063-1.906 1.891-.906.828-2.031 1.172ZM49.642 8.906l.468-.093a2.741 2.741 0 0 1 .454.476 3.308 3.308 0 0 1 .156.227q.265.422.359.89.04.201.04.393a1.742 1.742 0 0 1-.071.498 1.025 1.025 0 0 1-.34.503 1.501 1.501 0 0 1-.254.169q.026.13.02.206a.256.256 0 0 1-.004.028.605.605 0 0 1-.024.087.498.498 0 0 1-.023.054.301.301 0 0 0-.025.07.255.255 0 0 0-.006.055.127.127 0 0 0 .006.037q.019.058.087.15a2.638 2.638 0 0 0-.737.868 3.433 3.433 0 0 0-.2.445 6.804 6.804 0 0 0-.201.63q-.084.319-.12.606a3.475 3.475 0 0 0-.023.264 9.337 9.337 0 0 1 .607-.554 10.644 10.644 0 0 1 .221-.181 21.975 21.975 0 0 1 .938-.703 87.699 87.699 0 0 1 .709-.498 78.128 78.128 0 0 1 .228-.158 12.23 12.23 0 0 0 .536-.391 10.208 10.208 0 0 0 .292-.234q.963-.875 1.858-1.437a9.532 9.532 0 0 1 .127-.079 43.68 43.68 0 0 0 .98-.613 53.91 53.91 0 0 0 1.035-.684q.195-.048.324-.031a.375.375 0 0 1 .067.016 5.027 5.027 0 0 1 .182.065 6.076 6.076 0 0 1 .115.044q0-.187-.109-.218-.105-.03-.081-.233a.819.819 0 0 1 .002-.017 5.233 5.233 0 0 0 .387-.119q.233-.082.426-.178a7.932 7.932 0 0 1 .454-.209 9.557 9.557 0 0 1 .296-.119 9.182 9.182 0 0 1 .531.578 1.007 1.007 0 0 0 .512.322 1.361 1.361 0 0 0 .176.037q.124.273.288.438a.955.955 0 0 0 .087.078q.218.172.437.328a1.9 1.9 0 0 1 .391.375.747.747 0 0 1 .105.189q.078.198.098.498a72.501 72.501 0 0 0-.129.227 88.124 88.124 0 0 0-.137.242 3.303 3.303 0 0 0-.128.255q-.062.136-.12.292a5.588 5.588 0 0 0-.017.047q-.625.562-1.266 1a34.482 34.482 0 0 1-1.297.843 76.246 76.246 0 0 1-1.344.813 12.188 12.188 0 0 0-.871.569 14.895 14.895 0 0 0-.535.4 1.703 1.703 0 0 1-.319.336 1.956 1.956 0 0 1-.071.054q-.235.172-.485.344a5.556 5.556 0 0 0-.469.359 1.392 1.392 0 0 0-.343.438.59.59 0 0 1-.185.031.565.565 0 0 1-.003 0q-.093 0-.187.031a.734.734 0 0 1-.297.344q-.203.125-.266.344a4.53 4.53 0 0 0 .464.785 3.371 3.371 0 0 0 .755.746q.75.532 1.687.766a8.359 8.359 0 0 0 1.331.216 10.12 10.12 0 0 0 .701.034 155.063 155.063 0 0 0 1.693.015 175.234 175.234 0 0 0 .588.001.227.227 0 0 0 .046-.017q.073-.036.064-.118a.183.183 0 0 0-.001-.006.144.144 0 0 1-.001-.012q-.005-.089.121-.07a.426.426 0 0 1 .021.004 3.428 3.428 0 0 1 .533.226q.376.201.623.477a6.659 6.659 0 0 0 .507.505 8.448 8.448 0 0 0 .462.385q-.063 1.188-.719 1.969a4.247 4.247 0 0 1-1.05.891 5.491 5.491 0 0 1-.7.359 23.83 23.83 0 0 1-.727.02q-1.058.012-1.913-.082a7.805 7.805 0 0 1-2.235-.594.16.16 0 0 1-.039-.029q-.043-.041-.086-.127a1.153 1.153 0 0 0-.039-.072q-.021-.036-.042-.064a.459.459 0 0 0-.044-.052.744.744 0 0 0-.21-.067q-.112-.019-.243-.011a1.799 1.799 0 0 1-.078.003q-.207.003-.362-.046a.801.801 0 0 1-.013-.004 2.895 2.895 0 0 1-.143-.077q-.24-.138-.638-.407a53.016 53.016 0 0 1-.508-.348 40.705 40.705 0 0 1-.461-.324 24.474 24.474 0 0 1-.809-.656 22.028 22.028 0 0 1-.254-.219 6.202 6.202 0 0 1-.803-.844 5.716 5.716 0 0 1-.072-.093.341.341 0 0 0-.235-.139.418.418 0 0 0-.015-.002.864.864 0 0 1-.174-.035.728.728 0 0 1-.107-.043A5.488 5.488 0 0 0 48.298 23a31.549 31.549 0 0 0-1.188 1.719 19.71 19.71 0 0 1-1.187 1.656 3.965 3.965 0 0 1-1.594 1.187 1.44 1.44 0 0 1-.265-.023 1.114 1.114 0 0 1-.235-.07q-.219-.094-.406-.235-.188-.14-.375-.265-.188-.125-.406-.188a1.74 1.74 0 0 0-.061-.465 1.541 1.541 0 0 0-.08-.222 16.656 16.656 0 0 0-.211-.451 14.627 14.627 0 0 0-.07-.143 2.765 2.765 0 0 1-.134-.311 2.235 2.235 0 0 1-.069-.236.574.574 0 0 1-.016-.132q0-.196.141-.383a1.693 1.693 0 0 0-.147-.13q-.164-.129-.408-.272a5.45 5.45 0 0 0-.008-.005q.173-.173.173-.319a.243.243 0 0 0-.001-.025 1.13 1.13 0 0 0-.063-.273 1.277 1.277 0 0 0-.015-.039 2.47 2.47 0 0 1-.072-.208 3.041 3.041 0 0 1-.037-.136.42.42 0 0 1-.013-.102q0-.136.091-.273a.977.977 0 0 0 .126-.009q.112-.014.249-.053a3.753 3.753 0 0 1-.059-.081q-.126-.177-.113-.216a.045.045 0 0 0 .002-.014q0-.043-.069-.116a.738.738 0 0 0-.011-.011q-.06-.179.052-.23a.17.17 0 0 1 .01-.004q.125-.047.25-.109a14.04 14.04 0 0 1 .285-1.916 11.903 11.903 0 0 1 .246-.928 30.165 30.165 0 0 1 .907-2.531 135.382 135.382 0 0 0 .984-2.469 17.412 17.412 0 0 0 .63-1.981 20.071 20.071 0 0 0 .167-.707q.344-.343.547-.812a18.901 18.901 0 0 1 .437-.938q.235-.468.532-.922a2.115 2.115 0 0 1 .622-.613 2.598 2.598 0 0 1 .206-.121 1.867 1.867 0 0 1 .504.104 1.639 1.639 0 0 1 .277.13q.298.176.713.176a2.093 2.093 0 0 0 .131-.004q.093.157.172.313a1.64 1.64 0 0 0 .116.195 2.017 2.017 0 0 0 .087.117Zm198.312 0 .469-.093a2.741 2.741 0 0 1 .454.476 3.308 3.308 0 0 1 .155.227q.266.422.36.89.04.201.04.393a1.742 1.742 0 0 1-.072.498 1.025 1.025 0 0 1-.34.503 1.501 1.501 0 0 1-.253.169q.026.13.019.206a.256.256 0 0 1-.004.028.605.605 0 0 1-.024.087.498.498 0 0 1-.023.054.301.301 0 0 0-.025.07.255.255 0 0 0-.006.055.127.127 0 0 0 .007.037q.018.058.087.15a2.638 2.638 0 0 0-.737.868 3.433 3.433 0 0 0-.201.445 6.804 6.804 0 0 0-.201.63q-.084.319-.119.606a3.475 3.475 0 0 0-.023.264 9.337 9.337 0 0 1 .606-.554 10.644 10.644 0 0 1 .222-.181 21.975 21.975 0 0 1 .937-.703 87.699 87.699 0 0 1 .709-.498 78.128 78.128 0 0 1 .229-.158 12.23 12.23 0 0 0 .536-.391 10.208 10.208 0 0 0 .292-.234q.963-.875 1.857-1.437a9.532 9.532 0 0 1 .127-.079 43.68 43.68 0 0 0 .981-.613 53.91 53.91 0 0 0 1.035-.684q.195-.048.323-.031a.375.375 0 0 1 .068.016 5.027 5.027 0 0 1 .182.065 6.076 6.076 0 0 1 .114.044q0-.187-.109-.218-.105-.03-.08-.233a.819.819 0 0 1 .002-.017 5.233 5.233 0 0 0 .386-.119q.233-.082.426-.178a7.932 7.932 0 0 1 .455-.209 9.557 9.557 0 0 1 .295-.119 9.182 9.182 0 0 1 .532.578 1.007 1.007 0 0 0 .511.322 1.361 1.361 0 0 0 .176.037q.124.273.288.438a.955.955 0 0 0 .087.078q.219.172.438.328a1.9 1.9 0 0 1 .39.375.747.747 0 0 1 .106.189q.077.198.097.498a72.501 72.501 0 0 0-.128.227 88.124 88.124 0 0 0-.137.242 3.303 3.303 0 0 0-.129.255q-.061.136-.12.292a5.588 5.588 0 0 0-.017.047q-.625.562-1.265 1a34.482 34.482 0 0 1-1.297.843 76.246 76.246 0 0 1-1.344.813 12.188 12.188 0 0 0-.872.569 14.895 14.895 0 0 0-.534.4 1.703 1.703 0 0 1-.32.336 1.956 1.956 0 0 1-.071.054q-.234.172-.484.344a5.556 5.556 0 0 0-.469.359 1.392 1.392 0 0 0-.344.438.59.59 0 0 1-.184.031.565.565 0 0 1-.003 0q-.094 0-.187.031a.734.734 0 0 1-.298.344q-.203.125-.265.344a4.53 4.53 0 0 0 .464.785 3.371 3.371 0 0 0 .754.746q.75.532 1.688.766a8.359 8.359 0 0 0 1.33.216 10.12 10.12 0 0 0 .701.034 155.063 155.063 0 0 0 1.694.015 175.234 175.234 0 0 0 .587.001.227.227 0 0 0 .046-.017q.074-.036.065-.118a.183.183 0 0 0-.001-.006.144.144 0 0 1-.001-.012q-.006-.089.12-.07a.426.426 0 0 1 .021.004 3.428 3.428 0 0 1 .534.226q.375.201.623.477a6.659 6.659 0 0 0 .506.505 8.448 8.448 0 0 0 .462.385q-.062 1.188-.718 1.969a4.247 4.247 0 0 1-1.05.891 5.491 5.491 0 0 1-.7.359 23.83 23.83 0 0 1-.728.02q-1.057.012-1.913-.082a7.805 7.805 0 0 1-2.234-.594.16.16 0 0 1-.039-.029q-.043-.041-.086-.127a1.153 1.153 0 0 0-.039-.072q-.021-.036-.043-.064a.459.459 0 0 0-.043-.052.744.744 0 0 0-.211-.067q-.111-.019-.242-.011a1.799 1.799 0 0 1-.078.003q-.207.003-.363-.046a.801.801 0 0 1-.013-.004 2.895 2.895 0 0 1-.142-.077q-.24-.138-.639-.407a53.016 53.016 0 0 1-.508-.348 40.705 40.705 0 0 1-.461-.324 24.474 24.474 0 0 1-.808-.656 22.028 22.028 0 0 1-.254-.219 6.202 6.202 0 0 1-.804-.844 5.716 5.716 0 0 1-.071-.093.341.341 0 0 0-.235-.139.418.418 0 0 0-.015-.002.864.864 0 0 1-.175-.035.728.728 0 0 1-.106-.043A5.488 5.488 0 0 0 246.61 23a31.549 31.549 0 0 0-1.187 1.719 19.71 19.71 0 0 1-1.188 1.656 3.965 3.965 0 0 1-1.593 1.187 1.44 1.44 0 0 1-.266-.023 1.114 1.114 0 0 1-.234-.07q-.219-.094-.407-.235-.187-.14-.375-.265-.187-.125-.406-.188a1.74 1.74 0 0 0-.06-.465 1.541 1.541 0 0 0-.08-.222 16.656 16.656 0 0 0-.211-.451 14.627 14.627 0 0 0-.071-.143 2.765 2.765 0 0 1-.133-.311 2.235 2.235 0 0 1-.07-.236.574.574 0 0 1-.015-.132q0-.196.14-.383a1.693 1.693 0 0 0-.147-.13q-.164-.129-.407-.272a5.45 5.45 0 0 0-.008-.005q.173-.173.173-.319a.243.243 0 0 0-.001-.025 1.13 1.13 0 0 0-.064-.273 1.277 1.277 0 0 0-.015-.039 2.47 2.47 0 0 1-.072-.208 3.041 3.041 0 0 1-.037-.136.42.42 0 0 1-.013-.102q0-.136.091-.273a.977.977 0 0 0 .126-.009q.113-.014.249-.053a3.753 3.753 0 0 1-.059-.081q-.126-.177-.113-.216a.045.045 0 0 0 .003-.014q0-.043-.07-.116a.738.738 0 0 0-.011-.011q-.06-.179.052-.23a.17.17 0 0 1 .011-.004q.125-.047.25-.109a14.04 14.04 0 0 1 .285-1.916 11.903 11.903 0 0 1 .246-.928 30.165 30.165 0 0 1 .906-2.531 135.382 135.382 0 0 0 .985-2.469 17.412 17.412 0 0 0 .629-1.981 20.071 20.071 0 0 0 .167-.707q.344-.343.547-.812a18.901 18.901 0 0 1 .438-.938q.234-.468.531-.922a2.115 2.115 0 0 1 .622-.613 2.598 2.598 0 0 1 .206-.121 1.867 1.867 0 0 1 .505.104 1.639 1.639 0 0 1 .276.13q.298.176.714.176a2.093 2.093 0 0 0 .13-.004q.094.157.172.313a1.64 1.64 0 0 0 .116.195 2.017 2.017 0 0 0 .087.117Zm-168.609.859a.497.497 0 0 0 .004-.04q.006-.106-.02-.287a5.722 5.722 0 0 1-.11-.048 5.112 5.112 0 0 1-.968-.562q-.484-.359-.797-.89a.907.907 0 0 1 .003.026q.02.249-.143.145-.146-.092-.258.096a.727.727 0 0 0-.039.076.521.521 0 0 1-.211-.047q-.081-.036-.165-.098A1.412 1.412 0 0 1 76.485 8q-1.312.25-2.343.375a84.295 84.295 0 0 0-.511.063 75.345 75.345 0 0 0-1.474.203q-.953.14-1.937.359a17.254 17.254 0 0 0-.282.065q-.878.211-1.953.56a55.592 55.592 0 0 1-.671.148 47.788 47.788 0 0 1-.641.133 9.506 9.506 0 0 0-.456.103 7.893 7.893 0 0 0-.7.21 4.554 4.554 0 0 0-.985.484q-.453.297-.765.766a7.096 7.096 0 0 1 .028.099 6.407 6.407 0 0 1 .19.948 14.35 14.35 0 0 0 .157 1 4.571 4.571 0 0 0 .025.121 4.977 4.977 0 0 0 .272.847 2.336 2.336 0 0 0 .227.416 2.83 2.83 0 0 0 .413.475 13.778 13.778 0 0 1-.194.499 10.811 10.811 0 0 1-.259.579q-.234.485-.469.953a20.878 20.878 0 0 0-.453.969 11.444 11.444 0 0 0-.107.254 12.958 12.958 0 0 0-.299.809q-.144-.021-.206.033a.135.135 0 0 0-.044.076.205.205 0 0 1-.106.144.296.296 0 0 1-.082.028 1.081 1.081 0 0 1 .003.013q.087.43-.206.799a1.96 1.96 0 0 0-.39.844q-.067.31-.063.667a3.96 3.96 0 0 0 .016.302q.047.531.14 1.078a75.359 75.359 0 0 0 .047.27 66.216 66.216 0 0 0 .141.777q.094.5.125.906.344.156.422.453a.976.976 0 0 0 .097.238 1.088 1.088 0 0 0 .231.278 2.923 2.923 0 0 0 .704.517 3.653 3.653 0 0 0 .827.311 8.57 8.57 0 0 0 .236.055 9.364 9.364 0 0 0 1.733.211q1.031.031 2.031-.094 1-.125 1.719-.281.25 0 .437.078a.539.539 0 0 0 .105.031q.156.03.364-.016 1.156-.218 2.11-.375.953-.156 1.734-.437t1.391-.828q.38-.342.706-.873a6.453 6.453 0 0 0 .372-.705q-.08.013-.139.001a.196.196 0 0 1-.127-.08.602.602 0 0 1-.067-.123.783.783 0 0 1-.042-.142 4.371 4.371 0 0 0-.021-.099 5.173 5.173 0 0 0-.057-.229.657.657 0 0 0-.172-.297.901.901 0 0 1-.012.001q-.066.006-.127.002a.56.56 0 0 1-.33-.128 2.664 2.664 0 0 1-.093-.081 3.023 3.023 0 0 1-.266-.279q-.172-.203-.36-.437a1.218 1.218 0 0 0-.091-.102.97.97 0 0 0-.346-.226 6.924 6.924 0 0 1-.571.171 8.403 8.403 0 0 1-1.007.188 4.93 4.93 0 0 0-.707.141 3.648 3.648 0 0 0-.778.312q-.732-.023-1.28.013a7.104 7.104 0 0 0-.376.034q-.656.078-1.281.156a14.888 14.888 0 0 1-.399.045 17.599 17.599 0 0 1-.929.065 4.96 4.96 0 0 1-.03.001q-.474.018-1.107-.047a14.578 14.578 0 0 1-.629-.079 12.012 12.012 0 0 1 .002-.007 12.334 12.334 0 0 1 .717-1.587 10.814 10.814 0 0 1 .906-1.406 2.081 2.081 0 0 0 .355.083q.188.028.398.028a3.297 3.297 0 0 0 .106-.002 2.696 2.696 0 0 1 .087-.001q.201 0 .377.031a1.523 1.523 0 0 1 .364.111q.215-.134.578-.107a1.986 1.986 0 0 1 .126.013 2.013 2.013 0 0 0 .11.012q.374.031.593-.106.086.065.149.085a.178.178 0 0 0 .054.009h.234a5.464 5.464 0 0 0 .228.005q.616 0 1.132-.146.609-.171 1.156-.453.547-.281 1.047-.64.5-.36 1-.703a1.383 1.383 0 0 0 .041-.117q.05-.167.05-.33a1.044 1.044 0 0 0-.013-.163 2.094 2.094 0 0 0-.013-.073 1.838 1.838 0 0 0-.159-.474q-.093.01-.179.004a.813.813 0 0 1-.368-.113 2.112 2.112 0 0 1-.173-.117 2.539 2.539 0 0 1-.28-.242q-.219-.219-.438-.454a3.43 3.43 0 0 0-.191-.19 2.63 2.63 0 0 0-.246-.2.423.423 0 0 1-.004-.018q-.023-.111.035-.154a.089.089 0 0 0 .025-.03q.025-.047.013-.136a.62.62 0 0 0-.007-.037 37.644 37.644 0 0 0-2.609.156q-1.328.125-2.422.031-.082-.164-.08-.412a1.589 1.589 0 0 1 .002-.072 1.251 1.251 0 0 0 .002-.066 1.25 1.25 0 0 0-.111-.512q.281-.094.562-.172a1.24 1.24 0 0 0 .094-.03 1.015 1.015 0 0 0 .375-.236 3.759 3.759 0 0 0 .173.014q.33.017.565-.035a1.017 1.017 0 0 0 .215-.072q.328-.157.734 0a7.025 7.025 0 0 1 .647-.348 5.719 5.719 0 0 1 1.432-.465q1.046-.187 2.046-.359a8.443 8.443 0 0 0 .248-.047 7.466 7.466 0 0 0 1.612-.516q.544-.247 1.006-.763a4.85 4.85 0 0 0 .509-.69 2.961 2.961 0 0 1-.02-.076q-.042-.163-.042-.252a1.413 1.413 0 0 1 .002-.08 1.143 1.143 0 0 1 .014-.123 7.922 7.922 0 0 0 .015-.098 9.925 9.925 0 0 0 .016-.105Zm198.312 0a.497.497 0 0 0 .004-.04q.007-.106-.019-.287a5.722 5.722 0 0 1-.111-.048 5.112 5.112 0 0 1-.967-.562q-.485-.359-.797-.89a.907.907 0 0 1 .002.026q.021.249-.143.145-.146-.092-.258.096a.727.727 0 0 0-.039.076.521.521 0 0 1-.21-.047q-.081-.036-.166-.098a1.412 1.412 0 0 1-.155-.136q-1.313.25-2.344.375a84.295 84.295 0 0 0-.511.063 75.345 75.345 0 0 0-1.473.203q-.953.14-1.938.359a17.254 17.254 0 0 0-.282.065q-.878.211-1.952.56a55.592 55.592 0 0 1-.672.148 47.788 47.788 0 0 1-.641.133 9.506 9.506 0 0 0-.455.103 7.893 7.893 0 0 0-.701.21 4.554 4.554 0 0 0-.984.484q-.453.297-.766.766a7.096 7.096 0 0 1 .029.099 6.407 6.407 0 0 1 .19.948 14.35 14.35 0 0 0 .156 1 4.571 4.571 0 0 0 .025.121 4.977 4.977 0 0 0 .272.847 2.336 2.336 0 0 0 .228.416 2.83 2.83 0 0 0 .413.475 13.778 13.778 0 0 1-.195.499 10.811 10.811 0 0 1-.258.579q-.235.485-.469.953a20.878 20.878 0 0 0-.453.969 11.444 11.444 0 0 0-.108.254 12.958 12.958 0 0 0-.299.809q-.143-.021-.206.033a.135.135 0 0 0-.044.076.205.205 0 0 1-.105.144.296.296 0 0 1-.082.028 1.081 1.081 0 0 1 .003.013q.086.43-.206.799a1.96 1.96 0 0 0-.391.844q-.066.31-.062.667a3.96 3.96 0 0 0 .015.302q.047.531.141 1.078a75.359 75.359 0 0 0 .047.27 66.216 66.216 0 0 0 .14.777q.094.5.125.906.344.156.422.453a.976.976 0 0 0 .097.238 1.088 1.088 0 0 0 .231.278 2.923 2.923 0 0 0 .704.517 3.653 3.653 0 0 0 .828.311 8.57 8.57 0 0 0 .236.055 9.364 9.364 0 0 0 1.732.211q1.032.031 2.032-.094t1.718-.281q.25 0 .438.078a.539.539 0 0 0 .104.031q.157.03.365-.016 1.156-.218 2.109-.375.953-.156 1.734-.437.782-.281 1.391-.828.381-.342.707-.873a6.453 6.453 0 0 0 .371-.705q-.079.013-.139.001a.196.196 0 0 1-.126-.08.602.602 0 0 1-.068-.123.783.783 0 0 1-.042-.142 4.371 4.371 0 0 0-.021-.099 5.173 5.173 0 0 0-.057-.229.657.657 0 0 0-.172-.297.901.901 0 0 1-.011.001q-.067.006-.128.002a.56.56 0 0 1-.33-.128 2.664 2.664 0 0 1-.092-.081 3.023 3.023 0 0 1-.267-.279q-.172-.203-.359-.437a1.218 1.218 0 0 0-.092-.102.97.97 0 0 0-.346-.226 6.924 6.924 0 0 1-.571.171 8.403 8.403 0 0 1-1.007.188 4.93 4.93 0 0 0-.707.141 3.648 3.648 0 0 0-.777.312q-.732-.023-1.28.013a7.104 7.104 0 0 0-.377.034q-.656.078-1.281.156a14.888 14.888 0 0 1-.398.045 17.599 17.599 0 0 1-.93.065 4.96 4.96 0 0 1-.029.001q-.474.018-1.108-.047a14.578 14.578 0 0 1-.629-.079 12.012 12.012 0 0 1 .003-.007 12.334 12.334 0 0 1 .716-1.587 10.814 10.814 0 0 1 .906-1.406 2.081 2.081 0 0 0 .355.083q.189.028.399.028a3.297 3.297 0 0 0 .106-.002 2.696 2.696 0 0 1 .087-.001q.201 0 .376.031a1.523 1.523 0 0 1 .365.111q.214-.134.578-.107a1.986 1.986 0 0 1 .125.013 2.013 2.013 0 0 0 .11.012q.374.031.593-.106.086.065.15.085a.178.178 0 0 0 .053.009h.235a5.464 5.464 0 0 0 .227.005q.616 0 1.132-.146.609-.171 1.156-.453.547-.281 1.047-.64.5-.36 1-.703a1.383 1.383 0 0 0 .041-.117q.05-.167.05-.33a1.044 1.044 0 0 0-.013-.163 2.094 2.094 0 0 0-.013-.073 1.838 1.838 0 0 0-.159-.474q-.092.01-.178.004a.813.813 0 0 1-.368-.113 2.112 2.112 0 0 1-.174-.117 2.539 2.539 0 0 1-.28-.242q-.218-.219-.437-.454a3.43 3.43 0 0 0-.191-.19 2.63 2.63 0 0 0-.247-.2.423.423 0 0 1-.004-.018q-.022-.111.036-.154a.089.089 0 0 0 .025-.03q.025-.047.012-.136a.62.62 0 0 0-.006-.037 37.644 37.644 0 0 0-2.609.156q-1.329.125-2.422.031-.082-.164-.081-.412a1.589 1.589 0 0 1 .003-.072 1.251 1.251 0 0 0 .001-.066 1.25 1.25 0 0 0-.111-.512q.281-.094.563-.172a1.24 1.24 0 0 0 .094-.03 1.015 1.015 0 0 0 .374-.236 3.759 3.759 0 0 0 .173.014q.33.017.565-.035a1.017 1.017 0 0 0 .216-.072q.328-.157.734 0a7.025 7.025 0 0 1 .646-.348 5.719 5.719 0 0 1 1.432-.465q1.047-.187 2.047-.359a8.443 8.443 0 0 0 .248-.047 7.466 7.466 0 0 0 1.611-.516q.544-.247 1.007-.763a4.85 4.85 0 0 0 .509-.69 2.961 2.961 0 0 1-.021-.076q-.042-.163-.042-.252a1.413 1.413 0 0 1 .003-.08 1.143 1.143 0 0 1 .013-.123 7.922 7.922 0 0 0 .016-.098 9.925 9.925 0 0 0 .015-.105Zm71.907 0a.497.497 0 0 0 .004-.04q.006-.106-.02-.287a5.722 5.722 0 0 1-.11-.048 5.112 5.112 0 0 1-.968-.562q-.485-.359-.797-.89a.907.907 0 0 1 .003.026q.02.249-.144.145-.145-.092-.257.096a.727.727 0 0 0-.04.076.521.521 0 0 1-.21-.047q-.081-.036-.165-.098a1.412 1.412 0 0 1-.156-.136q-1.312.25-2.344.375a84.295 84.295 0 0 0-.51.063 75.345 75.345 0 0 0-1.474.203q-.953.14-1.937.359a17.254 17.254 0 0 0-.282.065q-.879.211-1.953.56a55.592 55.592 0 0 1-.672.148 47.788 47.788 0 0 1-.64.133 9.506 9.506 0 0 0-.456.103 7.893 7.893 0 0 0-.701.21 4.554 4.554 0 0 0-.984.484q-.453.297-.766.766a7.096 7.096 0 0 1 .029.099 6.407 6.407 0 0 1 .19.948 14.35 14.35 0 0 0 .156 1 4.571 4.571 0 0 0 .026.121 4.977 4.977 0 0 0 .271.847 2.336 2.336 0 0 0 .228.416 2.83 2.83 0 0 0 .413.475 13.778 13.778 0 0 1-.194.499 10.811 10.811 0 0 1-.259.579q-.235.485-.469.953a20.878 20.878 0 0 0-.453.969 11.444 11.444 0 0 0-.107.254 12.958 12.958 0 0 0-.299.809q-.144-.021-.207.033a.135.135 0 0 0-.043.076.205.205 0 0 1-.106.144.296.296 0 0 1-.082.028 1.081 1.081 0 0 1 .003.013q.087.43-.206.799a1.96 1.96 0 0 0-.391.844q-.066.31-.062.667a3.96 3.96 0 0 0 .016.302q.046.531.14 1.078a75.359 75.359 0 0 0 .047.27 66.216 66.216 0 0 0 .141.777q.093.5.125.906.343.156.422.453a.976.976 0 0 0 .097.238 1.088 1.088 0 0 0 .231.278 2.923 2.923 0 0 0 .703.517 3.653 3.653 0 0 0 .828.311 8.57 8.57 0 0 0 .236.055 9.364 9.364 0 0 0 1.733.211q1.031.031 2.031-.094 1-.125 1.719-.281.25 0 .437.078a.539.539 0 0 0 .104.031q.157.03.365-.016 1.156-.218 2.109-.375.953-.156 1.735-.437.781-.281 1.39-.828.381-.342.707-.873a6.453 6.453 0 0 0 .371-.705q-.079.013-.138.001a.196.196 0 0 1-.127-.08.602.602 0 0 1-.067-.123.783.783 0 0 1-.043-.142 4.371 4.371 0 0 0-.021-.099 5.173 5.173 0 0 0-.057-.229.657.657 0 0 0-.172-.297.901.901 0 0 1-.011.001q-.066.006-.127.002a.56.56 0 0 1-.33-.128 2.664 2.664 0 0 1-.093-.081 3.023 3.023 0 0 1-.267-.279q-.172-.203-.359-.437a1.218 1.218 0 0 0-.091-.102.97.97 0 0 0-.347-.226 6.924 6.924 0 0 1-.57.171 8.403 8.403 0 0 1-1.008.188 4.93 4.93 0 0 0-.707.141 3.648 3.648 0 0 0-.777.312q-.732-.023-1.28.013a7.104 7.104 0 0 0-.376.034q-.657.078-1.282.156a14.888 14.888 0 0 1-.398.045 17.599 17.599 0 0 1-.93.065 4.96 4.96 0 0 1-.029.001q-.474.018-1.107-.047a14.578 14.578 0 0 1-.629-.079 12.012 12.012 0 0 1 .002-.007 12.334 12.334 0 0 1 .716-1.587 10.814 10.814 0 0 1 .907-1.406 2.081 2.081 0 0 0 .355.083q.188.028.398.028a3.297 3.297 0 0 0 .106-.002 2.696 2.696 0 0 1 .087-.001q.201 0 .376.031a1.523 1.523 0 0 1 .365.111q.215-.134.578-.107a1.986 1.986 0 0 1 .125.013 2.013 2.013 0 0 0 .11.012q.375.031.593-.106.086.065.15.085a.178.178 0 0 0 .054.009h.234a5.464 5.464 0 0 0 .227.005q.617 0 1.132-.146.61-.171 1.157-.453.546-.281 1.046-.64.5-.36 1-.703a1.383 1.383 0 0 0 .041-.117q.05-.167.05-.33a1.044 1.044 0 0 0-.012-.163 2.094 2.094 0 0 0-.013-.073 1.838 1.838 0 0 0-.159-.474q-.093.01-.179.004a.813.813 0 0 1-.368-.113 2.112 2.112 0 0 1-.174-.117 2.539 2.539 0 0 1-.279-.242q-.219-.219-.438-.454a3.43 3.43 0 0 0-.191-.19 2.63 2.63 0 0 0-.246-.2.423.423 0 0 1-.004-.018q-.023-.111.035-.154a.089.089 0 0 0 .025-.03q.025-.047.013-.136a.62.62 0 0 0-.007-.037 37.644 37.644 0 0 0-2.609.156q-1.328.125-2.422.031-.082-.164-.08-.412a1.589 1.589 0 0 1 .002-.072 1.251 1.251 0 0 0 .002-.066 1.25 1.25 0 0 0-.112-.512q.282-.094.563-.172a1.24 1.24 0 0 0 .094-.03 1.015 1.015 0 0 0 .375-.236 3.759 3.759 0 0 0 .172.014q.331.017.565-.035a1.017 1.017 0 0 0 .216-.072q.328-.157.734 0a7.025 7.025 0 0 1 .646-.348 5.719 5.719 0 0 1 1.432-.465q1.047-.187 2.047-.359a8.443 8.443 0 0 0 .248-.047 7.466 7.466 0 0 0 1.612-.516q.543-.247 1.006-.763a4.85 4.85 0 0 0 .509-.69 2.961 2.961 0 0 1-.021-.076q-.041-.163-.041-.252a1.413 1.413 0 0 1 .002-.08 1.143 1.143 0 0 1 .013-.123 7.922 7.922 0 0 0 .016-.098 9.925 9.925 0 0 0 .016-.105ZM163.079 21.344a.558.558 0 0 0-.376.27.709.709 0 0 0-.03.058q-.125.266-.234.547a9.598 9.598 0 0 1-.11.269 7.617 7.617 0 0 1-.109.246q-.11.235-.328.235a.939.939 0 0 1-.088.301.862.862 0 0 1-.084.136q-.141.188-.266.391a1.633 1.633 0 0 0-.187.437q-.058.217.044.499a1.487 1.487 0 0 0 .018.048.79.79 0 0 0-.287.423 1.059 1.059 0 0 0-.025.109 10.637 10.637 0 0 1-.103.498 9.411 9.411 0 0 1-.038.158q-.078.312-.266.531-.18.21-.648.19a2.099 2.099 0 0 1-.039-.003q-.092.124-.033.156a.062.062 0 0 0 .002.001q.058.029.089.193a1.178 1.178 0 0 1 .004.026q-.301-.055-.47.022a.37.37 0 0 0-.045.024.875.875 0 0 1-.211.097q-.098.03-.211.044-.594-.187-.984-.656a5.639 5.639 0 0 1-.641-.957 6.271 6.271 0 0 1-.047-.09q-.297-.578-.531-1.172a16.215 16.215 0 0 0-.202-.49q-.096-.221-.189-.415a9.113 9.113 0 0 0-.062-.126q.093-.344.031-.672a1.669 1.669 0 0 0-.073-.266q-.055-.151-.138-.269a1.039 1.039 0 0 0-.008-.012 422.139 422.139 0 0 1 1.602-3.359 516.221 516.221 0 0 1 1.742-3.579 250.251 250.251 0 0 0 3.437-7.281q.719.282 1.422.641.703.359 1.282.828.578.469.984 1.078a3.44 3.44 0 0 1 .531 1.36.679.679 0 0 1-.019.05q-.051.12-.112.095a.075.075 0 0 1-.009-.005.122.122 0 0 0-.022-.01q-.065-.024-.119.057a2.34 2.34 0 0 1 .049.064q.079.106.092.155a.257.257 0 0 1 .007.062.257.257 0 0 1-.007.063.419.419 0 0 0-.009.043q-.006.046-.007.108a1.438 1.438 0 0 0 0 .021q0 .109.094.297a.399.399 0 0 0-.03-.007q-.101-.017-.142.038-.044.058-.184.007a.691.691 0 0 1-.019-.007q.125.344.078.562a1.569 1.569 0 0 1-.072.243 1.286 1.286 0 0 1-.069.148 1.977 1.977 0 0 0-.131.3 2.251 2.251 0 0 0-.025.075.565.565 0 0 0-.022.114q-.016.171.053.402a.299.299 0 0 0-.053.004q-.028.005-.051.016a.139.139 0 0 0-.036.026.693.693 0 0 0-.048.052.542.542 0 0 0-.031.042.558.558 0 0 1-.04.053.713.713 0 0 1-.038.041q-.043.043-.127.02a.305.305 0 0 1-.013-.005 7.624 7.624 0 0 1 .07 1.032 7.569 7.569 0 0 1-.008.344q-.031.687-.047 1.39a21.414 21.414 0 0 0-.005.476q0 .482.021.993a8.358 8.358 0 0 0 .151 1.262 9.542 9.542 0 0 0 .068.316 5.356 5.356 0 0 0 1.529-1.314 5.124 5.124 0 0 0 .268-.373 9.567 9.567 0 0 0 .897-1.764 11.101 11.101 0 0 0 .196-.549 16.014 16.014 0 0 0 .519-2.027 18.562 18.562 0 0 0 .122-.723 217.146 217.146 0 0 1 .469-3 1.892 1.892 0 0 0 .374-.54 2.243 2.243 0 0 0 .063-.147 9.037 9.037 0 0 0 .234-.692 10.151 10.151 0 0 0 .047-.168l.25-.906a4.838 4.838 0 0 1 .191-.561 4.082 4.082 0 0 1 .122-.267 2.003 2.003 0 0 1 .421.101 1.561 1.561 0 0 1 .376.196 5.771 5.771 0 0 1 .609.5 6.847 6.847 0 0 0 .594.5 1.458 1.458 0 0 0 .426.217 1.99 1.99 0 0 0 .355.08 23.027 23.027 0 0 1 .517.763 19.861 19.861 0 0 1 .171.268 2.883 2.883 0 0 1 .406 1.062 1.892 1.892 0 0 0-.202.447 2.202 2.202 0 0 0-.032.116q-.079.312-.172.625a2.633 2.633 0 0 1-.231.544 2.455 2.455 0 0 1-.019.034 1.354 1.354 0 0 1-.337.38 1.62 1.62 0 0 1-.101.073 18.825 18.825 0 0 1-.105.777 14.476 14.476 0 0 1-.129.707q-.141.672-.281 1.329-.141.656-.235 1.359-.07.527-.07 1.134a11.164 11.164 0 0 0 .008.413 992.651 992.651 0 0 0-.258.742 1191.956 1191.956 0 0 0-.274.789q-.241.698-.391 1.281a11.271 11.271 0 0 0-.046.188 2.919 2.919 0 0 0-.781.968 29.278 29.278 0 0 1-.594 1.126q-.12.12-.154.066a.053.053 0 0 1-.002-.004q-.029-.058-.194-.089a1.178 1.178 0 0 0-.025-.005q.03.118.003.181a.121.121 0 0 1-.003.007.418.418 0 0 1-.077.108.421.421 0 0 1-.001.001q-.037.037-.055.104a.41.41 0 0 0-.008.037.235.235 0 0 0-.003.031q-.002.086.049.216a1.133 1.133 0 0 0 .001.003 2.476 2.476 0 0 0-.781.531q-.344.344-.734.625a2.074 2.074 0 0 1-.607.297 2.638 2.638 0 0 1-.331.078 1.53 1.53 0 0 1-.199.02q-.499.02-1.223-.239-1.281-.937-2.265-2.156a9.535 9.535 0 0 1-1.138-1.801 11.872 11.872 0 0 1-.472-1.105Zm195.656-2.5-.343-.094a6.122 6.122 0 0 0-.803-.387 7.531 7.531 0 0 0-.541-.191 9.508 9.508 0 0 1-.614-.214q-.276-.108-.514-.224a5.337 5.337 0 0 1-.153-.078 1.145 1.145 0 0 1-.183.081q-.241.081-.458.013a4.854 4.854 0 0 0-.224-.064q-.117-.031-.252-.062a11.332 11.332 0 0 0-.29-.062q-1.062-.062-2.046-.218-.985-.156-1.891-.563-.063-.156-.156-.281a.2.2 0 0 0-.119-.075q-.077-.019-.189.004a.847.847 0 0 0-.036.008q-.188-.249-.375-.484a3.649 3.649 0 0 1-.304-.446 4.074 4.074 0 0 1-.04-.07q.048-.287.078-.51a9.049 9.049 0 0 0 .016-.13q.03-.259-.177-.504a1.094 1.094 0 0 0-.011-.012 22.512 22.512 0 0 0 .059-.193q.082-.275.129-.463a.999.999 0 0 0 .023-.135q.024-.217-.023-.521a2.751 2.751 0 0 1 .703-1.125q.484-.469 1.063-.797.578-.328 1.203-.547.625-.219 1.187-.375a37.318 37.318 0 0 1 1.886-.739 43.376 43.376 0 0 1 .786-.277q1.422-.484 2.906-.859 1.485-.375 3.047-.484 1.162-.082 2.41.174a11.068 11.068 0 0 1 .871.216 2.212 2.212 0 0 0 .282.594q.187.281.39.563a7.478 7.478 0 0 1 .236.345 6.258 6.258 0 0 1 .124.201q.156.266.187.547a2.62 2.62 0 0 1 .353.385 2.247 2.247 0 0 1 .147.225.844.844 0 0 1 .099.29q.039.242-.033.556a2.29 2.29 0 0 1-.003.013q-.313.25-.61.453t-.64.36a7.387 7.387 0 0 0-1.752-.211 7.517 7.517 0 0 0-.592.023 212.178 212.178 0 0 1-1.058.081q-.569.042-1.067.075a.944.944 0 0 0-.362-.231.946.946 0 0 0-.31-.05 2.7 2.7 0 0 0-.552.059 3.26 3.26 0 0 0-.26.066l-.844.25q-.422.125-.797.063-.313.25-.766.328a16.609 16.609 0 0 1-.472.074 20.838 20.838 0 0 1-.512.066q-.015.074-.002.123a.119.119 0 0 0 .064.08.099.099 0 0 1 .041.035q.036.056-.009.169a1.015 1.015 0 0 0 .42.29 1.232 1.232 0 0 0 .064.022 22.896 22.896 0 0 0 .463.141 26.242 26.242 0 0 0 .162.047 3.03 3.03 0 0 1 .327.112 2.332 2.332 0 0 1 .251.122.702.702 0 0 1 .299.333.961.961 0 0 1 .045.12 1.688 1.688 0 0 1 .422.05 1.349 1.349 0 0 1 .39.169 2.001 2.001 0 0 1 .469.408 1.862 1.862 0 0 1 .094.123q.219.313.328.672.091.299.106.544a1.552 1.552 0 0 1 .003.097q.084.222.192.222a.113.113 0 0 0 .027-.004.175.175 0 0 1 .043-.005q.101 0 .222.114a.835.835 0 0 1 .016.016 1.515 1.515 0 0 0 .15.385q.086.157.213.318a2.947 2.947 0 0 0 .106.125 3.483 3.483 0 0 1 .594.922q.054.672.084 1.216a35.26 35.26 0 0 1 .01.175q.025.491-.132.992a3.378 3.378 0 0 1-.087.242q-.469 1.157-1.297 2.063a10.329 10.329 0 0 1-1.875 1.609q-1.047.703-2.234 1.203a25.012 25.012 0 0 1-1.746.662 21.823 21.823 0 0 1-.567.182q-.125-.031-.25 0a.168.168 0 0 1-.014.003q-.099.016-.056-.136a.627.627 0 0 1 .008-.023 1.276 1.276 0 0 1-.314.204 1.125 1.125 0 0 1-.233.077q-.297.063-.641.047-.344-.016-.703-.047-.314-.027-.593.017a2.043 2.043 0 0 0-.079.014 7.662 7.662 0 0 1-.231-.241 6.109 6.109 0 0 1-.159-.181 1.24 1.24 0 0 1-.168-.261 1.703 1.703 0 0 1-.098-.254q-.156 0-.141-.156a.358.358 0 0 0 .002-.019q.005-.12-.083-.135a.164.164 0 0 0-.028-.003 6.016 6.016 0 0 0 .041-.068q.142-.244.131-.289a.02.02 0 0 0 0-.002q-.016-.047-.094-.078a.625.625 0 0 1-.115-.061.565.565 0 0 1-.026-.017.104.104 0 0 1-.03-.036q-.021-.039-.003-.099a.254.254 0 0 1 .002-.006q.124-.247.095-.57a1.461 1.461 0 0 0-.001-.008q-.031-.328-.063-.672a2.141 2.141 0 0 1-.008-.194 1.899 1.899 0 0 1 .055-.462.666.666 0 0 1 .206-.335q.082-.075.194-.137a1.361 1.361 0 0 1 .053-.028 6.79 6.79 0 0 0 .794.047 5.847 5.847 0 0 0 1.222-.125q.953-.203 1.797-.578.844-.375 1.609-.813a19.328 19.328 0 0 1 1.328-.694 17.508 17.508 0 0 1 .188-.087 1.448 1.448 0 0 1 .117-.265 1.145 1.145 0 0 1 .149-.204 3.708 3.708 0 0 1 .359-.344 2.679 2.679 0 0 0 .344-.343.99.99 0 0 0 .158-.271 1.3 1.3 0 0 0 .06-.198q.032-.219-.109-.266-.132-.044-.14-.212a.468.468 0 0 1-.001-.022Zm-163.343-7.156-.188.531-1.125 1.406-.031.875a14.67 14.67 0 0 0-.596 1.439 16.192 16.192 0 0 0-.076.217 17.35 17.35 0 0 0-.285.93 23.212 23.212 0 0 0-.262 1.039q-.281 1.188-.312 2.484a19.554 19.554 0 0 0-.006.471 19.298 19.298 0 0 0 .115 2.108q.141 1.281.422 2.5a19.53 19.53 0 0 0 .346 1.301 15.4 15.4 0 0 0 .31.917.495.495 0 0 0-.048.083q-.045.093-.085.242a3.3 3.3 0 0 0-.039.16q-.078.359-.125.765a11.592 11.592 0 0 0-.046.49 9.555 9.555 0 0 0-.016.276q-.014.325.035.484a.438.438 0 0 0 .012.032l.218.343a.279.279 0 0 1 .143.168.41.41 0 0 1 .014.051q.031.156.062.281a2.293 2.293 0 0 1 .008.183q0 .683-.414 1.317a6.004 6.004 0 0 1-.929-.213 5.356 5.356 0 0 1-.243-.084 14.565 14.565 0 0 1-.653-.26 12.153 12.153 0 0 1-.363-.162 7.134 7.134 0 0 0-.287-.562q-.148-.26-.304-.473a3.753 3.753 0 0 0-.143-.183 85.942 85.942 0 0 0-.719-.852 77.873 77.873 0 0 0-.047-.055q-.343-.374-.671-.781a5.346 5.346 0 0 1-.27-.366q-.136-.202-.275-.441a10.255 10.255 0 0 1-.127-.224q-.125-1.031-.313-1.875-.187-.844-.437-1.75l-.094-.344q.062-1.156.125-2.359a24.219 24.219 0 0 0 .023-.581q.017-.596-.002-1.099a11.684 11.684 0 0 0-.021-.398 2.657 2.657 0 0 0 .06-.331 3.3 3.3 0 0 0 .018-.216 12.97 12.97 0 0 1 .046-.6 13.281 13.281 0 0 1 .001-.009v-.375a3.212 3.212 0 0 1 .002-.131q.007-.155.029-.244l.688-.063-.219-1 .344-.375.125-.562a16.107 16.107 0 0 1 .142-1.472q.105-.724.276-1.353a9.3 9.3 0 0 1 .082-.285q.406-1.328 1.156-2.609l.25-.469a31.499 31.499 0 0 0 .797-1.131 35.635 35.635 0 0 0 .265-.4q.532-.813 1.219-1.75 1.094-1.188 1.922-2.031a10.545 10.545 0 0 1 .884-.809 8.157 8.157 0 0 1 .788-.566l.281-.344a40.399 40.399 0 0 1 .286-.269q.41-.381.725-.649a16.733 16.733 0 0 1 .005-.004 14.058 14.058 0 0 0 .497-.443 11.54 11.54 0 0 0 .268-.26q.344-.313.625-.563a3.52 3.52 0 0 1 .317-.251 2.781 2.781 0 0 1 .246-.155 1.652 1.652 0 0 0 .259.154q.229.106.448.106a.895.895 0 0 0 .137-.01q.281-.043.487-.102a2.127 2.127 0 0 0 .169-.054 2.515 2.515 0 0 1 .164.195q.154.205.195.372a.496.496 0 0 1 .016.12 1.777 1.777 0 0 1-.012.192q-.02.185-.076.432a6.925 6.925 0 0 1-.037.158q-.094.406-.172.937a1.773 1.773 0 0 0-.018.258q0 .422.19.898-.156.344-.266.703-.109.36-.234.735a7.401 7.401 0 0 1-.061.175q-.087.243-.158.372-.094.172-.203.281a2.471 2.471 0 0 1-.147.135 3.054 3.054 0 0 1-.103.084q-.127.098-.292.312a3.902 3.902 0 0 0-.036.047 4.62 4.62 0 0 0-.765.39 6.385 6.385 0 0 0-.688.501 11.948 11.948 0 0 0-1.375 1.343q-.641.735-1.125 1.516a8.894 8.894 0 0 0-.362.637q-.161.316-.272.608a4.8 4.8 0 0 0-.069.193Zm91.687-3.407.094.344-.125 2.375a23.553 23.553 0 0 0-.023.574q-.024.832.023 1.489-.063.281-.078.578-.016.297-.047.578v.375a3.212 3.212 0 0 1-.002.13q-.007.155-.029.245l-.688.094.219.968-.344.375-.125.563a16.107 16.107 0 0 1-.142 1.472q-.105.723-.276 1.352a9.3 9.3 0 0 1-.082.285 12.659 12.659 0 0 1-.886 2.147 14.501 14.501 0 0 1-.27.494l-.25.437a27.406 27.406 0 0 0-.793 1.134 31.628 31.628 0 0 0-.27.413 30.479 30.479 0 0 1-.57.856 39.14 39.14 0 0 1-.648.91 92.406 92.406 0 0 1-.783.84q-.622.658-1.139 1.175a10.793 10.793 0 0 1-.924.828 8.472 8.472 0 0 1-.748.532l-.281.344a40.399 40.399 0 0 1-.286.268q-.41.381-.725.649a16.733 16.733 0 0 1-.005.004 14.058 14.058 0 0 0-.497.443 11.54 11.54 0 0 0-.269.261q-.343.312-.625.562a3.52 3.52 0 0 1-.316.252 2.781 2.781 0 0 1-.246.154q-.35-.25-.68-.25a.865.865 0 0 0-.164.016 20.893 20.893 0 0 0-.193.038q-.276.056-.463.103a2.125 2.125 0 0 1-.164-.183q-.211-.267-.211-.489a1.872 1.872 0 0 1 .014-.219q.028-.236.111-.547a13.25 13.25 0 0 0 .09-.461 17.414 17.414 0 0 0 .082-.508 1.773 1.773 0 0 0 .018-.258q0-.422-.19-.898.156-.344.266-.687.109-.344.234-.75a7.401 7.401 0 0 1 .061-.175q.087-.243.158-.372.093-.172.203-.282a2.471 2.471 0 0 1 .147-.135 3.054 3.054 0 0 1 .103-.083q.127-.099.292-.313a3.902 3.902 0 0 0 .036-.047 4.711 4.711 0 0 0 .658-.336q.381-.231.779-.554.75-.61 1.391-1.344.641-.734 1.125-1.5a8.349 8.349 0 0 0 .367-.638q.211-.41.336-.784l.188-.562 1.093-1.407.063-.875a13.151 13.151 0 0 0 .577-1.389q.256-.723.476-1.562a24.85 24.85 0 0 0 .166-.674 10.633 10.633 0 0 0 .28-1.952 12.208 12.208 0 0 0 .017-.501 21.531 21.531 0 0 0 .001-.259 21.639 21.639 0 0 0-.126-2.335q-.141-1.296-.422-2.515-.282-1.219-.625-2.219a.495.495 0 0 0 .048-.083q.045-.092.085-.242a3.3 3.3 0 0 0 .039-.159q.078-.36.125-.766a11.592 11.592 0 0 0 .046-.49 9.555 9.555 0 0 0 .016-.276q.014-.324-.035-.483a.438.438 0 0 0-.012-.032l-.219-.313a.432.432 0 0 1-.1-.103.378.378 0 0 1-.056-.131q-.031-.141-.062-.297a2.293 2.293 0 0 1-.008-.183q0-.683.414-1.317.594.094 1.141.297.546.203 1.046.422a7.134 7.134 0 0 0 .288.563q.148.259.304.472a3.753 3.753 0 0 0 .143.183 85.942 85.942 0 0 0 .719.852 77.873 77.873 0 0 0 .046.055q.344.406.672.797a4.68 4.68 0 0 1 .27.356q.198.288.402.659.125 1.032.313 1.875.187.844.437 1.75Zm85.188 12.563-.125.375q-.188.187-.219.297a.313.313 0 0 1-.052.102q-.04.052-.104.101-.032.344-.219.687-.063.157-.094.297a2.443 2.443 0 0 0-.013.066q-.018.09-.018.137a.972.972 0 0 1-.009.135q-.022.159-.102.237a.247.247 0 0 1-.045.035q.031.156 0 .328a19.741 19.741 0 0 1-.047.249 17.172 17.172 0 0 1-.016.079 2.972 2.972 0 0 0-.04.183q-.04.217-.027.368a.731.731 0 0 0 .005.043q.093.125.172.218a.454.454 0 0 1 .066.11q.027.062.043.14a3.117 3.117 0 0 0 .088.057q.123.076.193.1.125.093.375.218l.281.313a2.898 2.898 0 0 1 .034.26q.058.725-.315 1.177-.372.472-1.157.569a3.557 3.557 0 0 1-.437.025h-.375a1.748 1.748 0 0 1-.07-.074q-.065-.073-.096-.129a.279.279 0 0 1-.021-.047 33.801 33.801 0 0 1-.119-.045q-.146-.055-.253-.098a10.691 10.691 0 0 1-.034-.013.507.507 0 0 1-.149-.094q-.07-.062-.133-.156a39.661 39.661 0 0 1-.193-.09q-.237-.111-.408-.196a12.274 12.274 0 0 1-.055-.027l-.281-.156v-.375q-.219-.281-.328-.625-.11-.344-.172-.687a6.781 6.781 0 0 0-.101-.401 5.875 5.875 0 0 0-.04-.131 1.878 1.878 0 0 0-.102-.26 1.498 1.498 0 0 0-.101-.177q-.062-1.813.344-3.063a54.342 54.342 0 0 1 .735-2.115 49.548 49.548 0 0 1 .109-.291q.25-.625.5-1.266.25-.64.437-1.328l.281-.312q.219-.5.36-.828.14-.328.297-.672a12.509 12.509 0 0 0 .132-.32 10.929 10.929 0 0 0 .04-.102q.067-.175.122-.315a20.709 20.709 0 0 1 .018-.044 3.962 3.962 0 0 0-.179.003 3.037 3.037 0 0 0-.165.012q-.156.016-.312.047a6.146 6.146 0 0 1-.18.027 4.616 4.616 0 0 1-.164.02q-.156.016-.312.016a2.45 2.45 0 0 1-.102-.002q-.14-.006-.211-.03a1.766 1.766 0 0 1-.662.155 2.061 2.061 0 0 1-.088.002h-.312a.98.98 0 0 1-.099-.005.767.767 0 0 1-.073-.011.888.888 0 0 0-.066-.011q-.033-.004-.064-.005a.516.516 0 0 0-.011 0 1.698 1.698 0 0 0-.196.011q-.179.021-.304.083h-1.031a.648.648 0 0 0-.049.002q-.024.002-.05.005a1.477 1.477 0 0 0-.057.009 1.458 1.458 0 0 1-.061.009q-.027.003-.051.005a.634.634 0 0 1-.045.001 2.326 2.326 0 0 1-.27-.016 2.921 2.921 0 0 1-.198-.031q-.25-.046-.532-.203-.375-.5-.5-.531l-.281-.375a2.022 2.022 0 0 0-.094-.359 4.97 4.97 0 0 1-.062-.182q-.031-.099-.063-.209a7.962 7.962 0 0 1-.164-.452 9.384 9.384 0 0 1-.07-.22 2.331 2.331 0 0 1-.075-.341q-.026-.177-.032-.379a4.305 4.305 0 0 1-.002-.139 1.32 1.32 0 0 1 .025-.141q.034-.147.099-.234a6.641 6.641 0 0 0 .067-.09q.032-.044.059-.083a3.345 3.345 0 0 0 .031-.046l.094-.469.406.032h.875q1 0 2.031-.079a214.466 214.466 0 0 0 1.989-.16 233.483 233.483 0 0 0 .136-.012q.625-.062 1.266-.124.64-.063 1.328-.125a13.439 13.439 0 0 1 .186-.401 11.618 11.618 0 0 1 .064-.131L372.61 8a3.149 3.149 0 0 1 .106-.004q.441-.01.655.121a.5.5 0 0 1 .036.024 4.256 4.256 0 0 1 .19.147q.113.093.201.181.687-.063 1.391-.141.703-.078 1.421-.203a70.59 70.59 0 0 1 2.141-.281 18.618 18.618 0 0 1 1.573-.117 16.48 16.48 0 0 1 .505-.008 11.174 11.174 0 0 1 .729.023 10.044 10.044 0 0 1 .115.008 8.142 8.142 0 0 1 .437.045 6.461 6.461 0 0 1 .313.049l.312.219a1.132 1.132 0 0 0 .19.268 1.351 1.351 0 0 0 .076.075q.172.157.359.313a6.464 6.464 0 0 1 .422.426 8.289 8.289 0 0 1 .328.386q.375.469.282 1.375a4.731 4.731 0 0 1-.09.13q-.145.203-.239.277a.273.273 0 0 1-.046.031l-.282.375-.312-.031a1.306 1.306 0 0 0-.206.015 1.061 1.061 0 0 0-.138.031q-.156.047-.312.11-.125.062-.25.109a1.615 1.615 0 0 1-.149.047 2.107 2.107 0 0 1-.133.031q-.275 0-.445-.015a2.403 2.403 0 0 1-.008 0 3.851 3.851 0 0 0-.266-.015 4.362 4.362 0 0 0-.093-.001 12.761 12.761 0 0 0-.918.035 16.114 16.114 0 0 0-.77.074q-.906.11-1.781.235a30.421 30.421 0 0 1-.911.123 26.826 26.826 0 0 1-.292.033 30.179 30.179 0 0 1-.551.055 21.93 21.93 0 0 1-.496.039 18.933 18.933 0 0 1-.205.61q-.102.285-.203.537a11.381 11.381 0 0 1-.029.071 15.51 15.51 0 0 1-.469 1.032q-.25.531-.453 1.078t-.391 1.172a11.636 11.636 0 0 0-.269.451q-.121.216-.219.414a6.955 6.955 0 0 0-.027.057 4.233 4.233 0 0 0-.214.539 5.341 5.341 0 0 0-.115.414 3.621 3.621 0 0 0-.434.682 3.198 3.198 0 0 0-.128.302q-.188.516-.281.891ZM87.548 26.5l-.719.188q-.875.281-1.906.562a7.809 7.809 0 0 1-2.063.281 5.063 5.063 0 0 1-.996-.092q-.603-.121-1.073-.401a2.835 2.835 0 0 1-.399-.288 3.691 3.691 0 0 0-.076-.158q-.079-.153-.148-.244a.652.652 0 0 0-.058-.067q-.093-.125-.171-.265-.055-.099-.087-.251a1.751 1.751 0 0 1-.023-.14 3.346 3.346 0 0 1-.547-.9 3.83 3.83 0 0 1-.047-.116q-.218-.578-.296-1.187a6.032 6.032 0 0 1-.049-.768 6.236 6.236 0 0 1 .017-.466 6.247 6.247 0 0 1 .157-1.011A5.655 5.655 0 0 1 79.11 21a.817.817 0 0 0 .062-.162.704.704 0 0 0 .017-.088 3.262 3.262 0 0 1 .018-.124q.01-.065.024-.137a5.427 5.427 0 0 1 .004-.02q.125-.5.266-.969a2.948 2.948 0 0 1 .193-.488 2.387 2.387 0 0 1 .198-.324q-.125-.282 0-.625.125-.344.281-.625.437-1.188.734-2.016.297-.828.61-1.641.531-1.406 1-2.781a29.677 29.677 0 0 0 .549-1.804 35.499 35.499 0 0 0 .294-1.165q.246-.153.371-.216a1.449 1.449 0 0 1 .004-.002 6.908 6.908 0 0 1 .09-.03q.121-.038.21-.061a2.27 2.27 0 0 1 .013-.003 9.639 9.639 0 0 0 .569.26q.345.146.743.287a6.233 6.233 0 0 0 .445.14q.224.061.42.092a2.455 2.455 0 0 0 .385.033 4.157 4.157 0 0 1 .101.065q.163.109.212.17a1.828 1.828 0 0 0 .078.091 1.517 1.517 0 0 0 .047.049 6.26 6.26 0 0 1 .48.645 5.557 5.557 0 0 1 .114.183q.25.422.156 1.11a2.284 2.284 0 0 1-.067.095q-.102.138-.17.173a.096.096 0 0 1-.044.013 11.668 11.668 0 0 1-.12.442q-.063.217-.129.405a6.019 6.019 0 0 1-.079.216q-.172.437-.36.875a18.207 18.207 0 0 0-.406.937q-.146.364-.254.861a8.791 8.791 0 0 0-.059.295 1.591 1.591 0 0 0-.076.104q-.035.052-.061.1a.693.693 0 0 0-.034.078 11.631 11.631 0 0 1-.048.124q-.029.074-.062.157a7.272 7.272 0 0 1-.084.201 8.634 8.634 0 0 1-.056.127.8.8 0 0 1-.224.288.93.93 0 0 1-.011.009 7.634 7.634 0 0 1-.077.521q-.046.246-.105.454a3.281 3.281 0 0 1-.115.337q-.203.5-.422 1-.375.907-.671 1.813a6.995 6.995 0 0 0-.25 1.033 9.389 9.389 0 0 0-.11 1.029.925.925 0 0 1 .15-.046.702.702 0 0 1 .147-.016h.266a2.066 2.066 0 0 1 .244.015q.118.014.25.041a3.966 3.966 0 0 1 .162.037 5.239 5.239 0 0 1 2.047-.593q1.109-.094 2.203-.125h.875a5.395 5.395 0 0 0 .497-.022 4.369 4.369 0 0 0 .315-.041 6.81 6.81 0 0 0 .099.054q.146.078.219.105a.284.284 0 0 0 .042.013.598.598 0 0 0 .05.008q.072.008.184.008a2.598 2.598 0 0 1 .156.004q.08.005.149.015a1.322 1.322 0 0 1 .07.012 3.693 3.693 0 0 0 .297.246q.149.111.292.189a1.958 1.958 0 0 0 .13.065q.344.156.719.281.343.125.672.266a2.637 2.637 0 0 1 .443.245 3.157 3.157 0 0 1 .197.146l.219 1.343a2.487 2.487 0 0 1 .065.087q.149.21.122.288a.797.797 0 0 1-.011.141q-.027.147-.114.234l.063.344a4.075 4.075 0 0 0-.216.049q-.296.076-.425.17a2.759 2.759 0 0 0-.328.281 7.488 7.488 0 0 1-.116.014q-.108.011-.181.015a1.186 1.186 0 0 1-.062.002h-.203a3.105 3.105 0 0 0-.355.022q-.178.021-.38.061a6.781 6.781 0 0 0-.328.074 5.498 5.498 0 0 0-1.75-.282 8.376 8.376 0 0 0-.533.018 9.592 9.592 0 0 0-.186.013l-.75.063a9.041 9.041 0 0 1-.765.094 9.991 9.991 0 0 1-.797.031Zm57.875-16.25v-.344a3.222 3.222 0 0 0 .352-.181q.302-.182.476-.397a128.935 128.935 0 0 0 .215-.266q.191-.238.426-.531a6.96 6.96 0 0 1 .165-.016q.158-.014.272-.015a1.972 1.972 0 0 1 .016 0 1.402 1.402 0 0 0 .11-.005q.158-.013.405-.057.232-.406.424-.624a1.669 1.669 0 0 1 .03-.033 1.833 1.833 0 0 1 .163-.154q.179-.15.446-.314.375.187.828.25a1.36 1.36 0 0 1 .765.374 1.682 1.682 0 0 1 .032.032 1.16 1.16 0 0 0 .036.198q.049.173.151.286a2.45 2.45 0 0 0 .344.313q.188.14.36.297a.709.709 0 0 1 .165.229q.043.092.068.204a1.25 1.25 0 0 1 .001.004.399.399 0 0 0 .03.006q.101.017.142-.037.043-.058.154-.036a.423.423 0 0 1 .018.004 3.395 3.395 0 0 0 .047.195q.05.179.107.287a.493.493 0 0 0 .064.097.604.604 0 0 1 .067.093q.062.104.123.273a3.695 3.695 0 0 1 .06.181q-.156.312-.234.64-.078.328-.391.485-.029.203.105.231a.201.201 0 0 0 .02.003q.134.013.176.129a.291.291 0 0 1 .012.043 1.046 1.046 0 0 1 .005.061q.009.169-.047.274a.294.294 0 0 1-.052.071 20.786 20.786 0 0 1 1.344 2.578 20.786 20.786 0 0 0 1.344 2.578 2.234 2.234 0 0 0-.008.186 2.017 2.017 0 0 0 .07.533q.094.344.235.672.14.328.265.672.125.344.188.687a3.179 3.179 0 0 1 .03.391q.004.209-.017.435a4.55 4.55 0 0 1-.013.127 5.344 5.344 0 0 1-.219 1q-.156.485-.406.875a1.924 1.924 0 0 1-.255.322 1.471 1.471 0 0 1-.339.256q-.438.563-1.063.876a6.112 6.112 0 0 0-1.156.749 2.36 2.36 0 0 1-.726.304 2.666 2.666 0 0 1-.039.009q-.422.094-.86.188-.295.161-.683.333a14.031 14.031 0 0 1-.129.057 13.351 13.351 0 0 1-.969.375 5.852 5.852 0 0 1-1 .25q-.473.074-.834.05a2.431 2.431 0 0 1-.041-.003 8.675 8.675 0 0 1-1.239.356 7.414 7.414 0 0 1-.589.097 4.559 4.559 0 0 1-.459.032q-.725.016-1.619-.172-.995.138-1.856-.042a4.503 4.503 0 0 1-.222-.052 4.992 4.992 0 0 1-1.307-.542 4.564 4.564 0 0 1-.381-.255 5.897 5.897 0 0 1-1.281-1.313q-.547-.765-.891-1.609-.25-1.781.125-3.234a10.934 10.934 0 0 1 1.035-2.611 10.271 10.271 0 0 1 .043-.077q.703-1.234 1.61-2.281.906-1.047 1.75-2.047.135.045.23.017a.224.224 0 0 0 .067-.033q.102-.073.191-.202a1.171 1.171 0 0 0 .012-.016q.093-.141.203-.266.109-.125.265-.156a1.595 1.595 0 0 1 .321-.464 1.456 1.456 0 0 1 .32-.239q.422-.235.672-.672a1.716 1.716 0 0 0 .224-.066q.116-.042.211-.1a1.002 1.002 0 0 0 .034-.022q.187-.125.359-.281.172-.156.359-.297a1.173 1.173 0 0 1 .343-.176 1.395 1.395 0 0 1 .095-.027ZM37.501 26.313a1.308 1.308 0 0 0 .038-.084q.216-.519.071-1.385a13.139 13.139 0 0 1-.22-2.378 12.565 12.565 0 0 1 .017-.653q.078-1.5.391-2.985.312-1.484.797-2.953.484-1.469 1.047-2.969-.25-.093-.36-.39a2.254 2.254 0 0 1-.076-.252 2.741 2.741 0 0 1-.064-.405 8.475 8.475 0 0 1-.032-.734V10.5q-.375-.187-.531-.516a3.099 3.099 0 0 1-.234-.703l-.156-.75q-.079-.375-.329-.687a2.697 2.697 0 0 0-.086.001q-.185.006-.347.038a1.524 1.524 0 0 0-.363.117 3.713 3.713 0 0 0-.121.06 3.253 3.253 0 0 0-.473.299 4.815 4.815 0 0 0-.017.013 5.193 5.193 0 0 0-.499.441 3.485 3.485 0 0 1-.531.437 1.895 1.895 0 0 1 .013.222 1.802 1.802 0 0 1-.185.794 15.457 15.457 0 0 1-.105.214q-.112.221-.203.38a4.006 4.006 0 0 1-.083.14q-.122.245-.12.432a.501.501 0 0 0 .011.099.662.662 0 0 1 .01.057q.025.205-.057.506a.334.334 0 0 1-.005.021q-.023.087-.089.136a.295.295 0 0 1-.093.046.474.474 0 0 0-.003.001q-.045.013-.079.034a.216.216 0 0 0-.106.137.591.591 0 0 0-.022.163q0 .075.018.154a.878.878 0 0 0 .051.152.817.817 0 0 1 .07.33q0 .098-.023.201-.25 1.281-.672 2.469a13.637 13.637 0 0 0-.013.037 14.663 14.663 0 0 0-.628 2.463 8.771 8.771 0 0 0-.028.237 9.989 9.989 0 0 0-.05.747q-.015.516-.031 1.016a15.121 15.121 0 0 1-.062.984 3.481 3.481 0 0 1-.062.403 2.641 2.641 0 0 1-.142.456 64.314 64.314 0 0 0 .037.153q.055.233.119.494a113.444 113.444 0 0 0 .141.572q.172.688.391 1.391.219.703.469 1.359a6.851 6.851 0 0 0 .071.18q.223.538.491.914a4.919 4.919 0 0 0 .106.016q.373.054.773.054a6.18 6.18 0 0 0 .309-.008 2.99 2.99 0 0 0 .34-.036 2.405 2.405 0 0 0 .769-.261 1.728 1.728 0 0 0 .364-.265 1.9 1.9 0 0 0 .386-.531Zm198.313 0a1.308 1.308 0 0 0 .038-.084q.215-.519.071-1.385a13.139 13.139 0 0 1-.22-2.378 12.565 12.565 0 0 1 .017-.653q.078-1.5.39-2.985.313-1.484.797-2.953.485-1.469 1.047-2.969-.25-.093-.359-.39a2.254 2.254 0 0 1-.076-.252 2.741 2.741 0 0 1-.065-.405 8.475 8.475 0 0 1-.031-.734V10.5q-.375-.187-.531-.516a3.099 3.099 0 0 1-.235-.703l-.156-.75q-.078-.375-.328-.687a2.697 2.697 0 0 0-.087.001q-.185.006-.347.038a1.524 1.524 0 0 0-.363.117 3.713 3.713 0 0 0-.121.06 3.253 3.253 0 0 0-.473.299 4.815 4.815 0 0 0-.016.013 5.193 5.193 0 0 0-.499.441 3.485 3.485 0 0 1-.532.437 1.895 1.895 0 0 1 .014.222 1.802 1.802 0 0 1-.185.794 15.457 15.457 0 0 1-.106.214q-.111.221-.202.38a4.006 4.006 0 0 1-.083.14q-.122.245-.12.432a.501.501 0 0 0 .011.099.662.662 0 0 1 .009.057q.026.205-.056.506a.334.334 0 0 1-.005.021q-.024.087-.089.136a.295.295 0 0 1-.094.046.474.474 0 0 0-.003.001q-.044.013-.079.034a.216.216 0 0 0-.105.137.591.591 0 0 0-.023.163q0 .075.019.154a.878.878 0 0 0 .051.152.817.817 0 0 1 .069.33q0 .098-.023.201-.25 1.281-.671 2.469a13.637 13.637 0 0 0-.014.037 14.663 14.663 0 0 0-.627 2.463 8.771 8.771 0 0 0-.028.237 9.989 9.989 0 0 0-.05.747q-.016.516-.031 1.016a15.121 15.121 0 0 1-.063.984 3.481 3.481 0 0 1-.062.403 2.641 2.641 0 0 1-.141.456 64.314 64.314 0 0 0 .036.153q.056.233.119.494a113.444 113.444 0 0 0 .142.572q.172.688.39 1.391.219.703.469 1.359a6.851 6.851 0 0 0 .072.18q.222.538.491.914a4.919 4.919 0 0 0 .106.016q.373.054.773.054a6.18 6.18 0 0 0 .308-.008 2.99 2.99 0 0 0 .341-.036 2.405 2.405 0 0 0 .769-.261 1.728 1.728 0 0 0 .363-.265 1.9 1.9 0 0 0 .387-.531Zm-123.25-8.375a.631.631 0 0 0-.061-.042q-.207-.123-.611-.177a2.017 2.017 0 0 0-.06-.158 1.5 1.5 0 0 0-.722-.78 3.407 3.407 0 0 0-.382-.162 3.893 3.893 0 0 0-.868-.197q-.687-.078-1.406-.094-.719-.015-1.25-.172-1.469.063-3.14.125a203.655 203.655 0 0 1-.417.015 184.102 184.102 0 0 1-2.818.079 2.209 2.209 0 0 1-.012.006q-.196.096-.429.163a3.577 3.577 0 0 1-.449.097 10.411 10.411 0 0 1-.195.027 11.684 11.684 0 0 1-.884.082q-.562.031-1.14.078a7.535 7.535 0 0 0-.362.038 6.299 6.299 0 0 0-.716.134q.104.131.034.381a1.197 1.197 0 0 1-.034.103q-.049.129-.117.212a.388.388 0 0 1-.258.148.959.959 0 0 1 .29.392 1.314 1.314 0 0 1 .085.327 2.205 2.205 0 0 1 0 .001q.062.468-.063.717a9.125 9.125 0 0 1 .157.28 7.406 7.406 0 0 1 .218.439 3.075 3.075 0 0 0 .072.147 2.645 2.645 0 0 0 .303.462 1.705 1.705 0 0 0 .216.218 2.068 2.068 0 0 0 .347.236q.343.187.937.218a1.338 1.338 0 0 1 .018-.008q.262-.114.829-.236a15.347 15.347 0 0 1 .419-.084 17.265 17.265 0 0 1 .348-.061q.87-.144 2.261-.298a9.182 9.182 0 0 1 .163-.018q.786-.076 2.056-.076a51.257 51.257 0 0 0 .353-.001 56.609 56.609 0 0 0 2.553-.077 33.603 33.603 0 0 0 .558-.034 29.894 29.894 0 0 0 2.317-.247 8.142 8.142 0 0 0 .633-.118q.932-.214 1.523-.617a5.09 5.09 0 0 1 .032-.562q.012-.112.007-.216a1.105 1.105 0 0 0-.054-.3q-.078-.234-.281-.39Zm38.296 2.687q.125-.344.329-.562a.759.759 0 0 0 .144-.234q.043-.105.067-.234a1.751 1.751 0 0 0 .023-.189 2.934 2.934 0 0 1-.07-.118q-.068-.12-.099-.208a.561.561 0 0 1-.019-.064.907.907 0 0 1-.013-.081q-.018-.138-.018-.372-.687-.969-1.187-2.079a15.825 15.825 0 0 0-1.106-2.047 14.772 14.772 0 0 0-.019-.031.568.568 0 0 1-.067.102q-.059.074-.152.148a.248.248 0 0 1-.055.034q-.134.059-.289-.096a.858.858 0 0 1-.051.149q-.038.083-.092.143a.444.444 0 0 1-.076.067.508.508 0 0 1-.297.096.558.558 0 0 1-.046-.002 1.306 1.306 0 0 1-.241-.044 1.636 1.636 0 0 1-.15-.05 1.387 1.387 0 0 1-.273-.14 1.237 1.237 0 0 1-.086-.063 106.576 106.576 0 0 1-1.813 1.406 9.047 9.047 0 0 0-1.625 1.594 1.146 1.146 0 0 1-.035.017q-.094.043-.121.03-.031-.016-.188.047a5.229 5.229 0 0 1-.515.947 4.793 4.793 0 0 1-.094.131q-.359.484-.703.984a6.608 6.608 0 0 0-.594 1.063q-.25.562-.281 1.312a2.413 2.413 0 0 0 1.239.53 2.841 2.841 0 0 0 .011.001q.719.094 1.484.032.766-.063 1.5-.203.735-.141 1.36-.141a10.959 10.959 0 0 0 1.076-.312q.565-.198 1.039-.444a6.532 6.532 0 0 0 .135-.072q.937-.516 1.968-1.047Z" stroke-linecap="round" fill-rule="evenodd" font-size="12" stroke="#f2d724" stroke-width=".75" fill="currentColor" />
</svg>
